<svg width="330" height="205" viewBox="0 0 330 205" fill="none" xmlns="http://www.w3.org/2000/svg">
<g clip-path="url(#clip0_16285_104524)">
<circle opacity="0.05" cx="240" cy="717" r="625" fill="url(#paint0_linear_16285_104524)"/>
<path d="M218.136 23.8464L278 -11L337.864 23.8464L315.855 36.7196L278 14.7464L240.145 36.7196L218.136 23.8464ZM337.864 67.7927L315.855 54.9196L278 76.8927L240.145 54.9196L218.136 67.7927V93.5391L255.991 115.512V159.458L278 172.332L300.009 159.458V115.512L337.864 93.5391V67.7927ZM337.864 137.485V111.739L315.855 124.612V150.359L337.864 137.485ZM353.491 146.585L315.636 168.559V194.305L375.5 159.458V89.7659L353.491 102.639V146.585ZM331.482 45.8196L353.491 58.6927V84.4391L375.5 71.5659V45.8196L353.491 32.9464L331.482 45.8196ZM255.991 177.88V203.627L278 216.5L300.009 203.627V177.88L278 190.754L255.991 177.88ZM218.136 137.485L240.145 150.359V124.612L218.136 111.739V137.485ZM255.991 45.8196L278 58.6927L300.009 45.8196L278 32.9464L255.991 45.8196ZM202.509 58.6927L224.518 45.8196L202.509 32.9464L180.5 45.8196V71.5659L202.509 84.4391V58.6927ZM202.509 102.639L180.5 89.7659V159.458L240.365 194.305V168.559L202.509 146.585V102.639Z" fill="url(#paint1_linear_16285_104524)" fill-opacity="0.08"/>
<path d="M218.136 23.8464L278 -11L337.864 23.8464L315.855 36.7196L278 14.7464L240.145 36.7196L218.136 23.8464ZM337.864 67.7927L315.855 54.9196L278 76.8927L240.145 54.9196L218.136 67.7927V93.5391L255.991 115.512V159.458L278 172.332L300.009 159.458V115.512L337.864 93.5391V67.7927ZM337.864 137.485V111.739L315.855 124.612V150.359L337.864 137.485ZM353.491 146.585L315.636 168.559V194.305L375.5 159.458V89.7659L353.491 102.639V146.585ZM331.482 45.8196L353.491 58.6927V84.4391L375.5 71.5659V45.8196L353.491 32.9464L331.482 45.8196ZM255.991 177.88V203.627L278 216.5L300.009 203.627V177.88L278 190.754L255.991 177.88ZM218.136 137.485L240.145 150.359V124.612L218.136 111.739V137.485ZM255.991 45.8196L278 58.6927L300.009 45.8196L278 32.9464L255.991 45.8196ZM202.509 58.6927L224.518 45.8196L202.509 32.9464L180.5 45.8196V71.5659L202.509 84.4391V58.6927ZM202.509 102.639L180.5 89.7659V159.458L240.365 194.305V168.559L202.509 146.585V102.639Z" fill="url(#paint2_linear_16285_104524)" fill-opacity="0.12"/>
<path d="M299.259 203.196L278 215.631L256.741 203.196V179.188L277.621 191.401L278 191.622L278.379 191.401L299.259 179.188V203.196ZM374.75 159.027L316.386 193V168.99L353.867 147.234L354.241 147.018V103.068L374.75 91.0732V159.027ZM201.759 103.068V147.018L202.133 147.234L239.614 168.989V192.999L181.25 159.027V91.0732L201.759 103.068ZM239.395 125.042V149.05L218.886 137.055V113.047L239.395 125.042ZM337.114 137.055L316.605 149.05V125.042L337.114 113.047V137.055ZM223.032 45.8193L202.13 58.0449L201.759 58.2627V83.1309L181.25 71.1357V46.249L202.509 33.8145L223.032 45.8193ZM298.523 45.8193L278 57.8232L257.476 45.8193L278 33.8145L298.523 45.8193ZM336.376 23.8477L315.853 35.8516L278.377 14.0977L278 13.8789L277.624 14.0977L240.146 35.8516L219.623 23.8477L278 -10.1328L336.376 23.8477ZM256.741 115.08L256.367 114.863L218.886 93.1074V68.2227L240.146 55.7871L277.624 77.541L278 77.7598L278.377 77.541L315.853 55.7871L337.114 68.2227V93.1074L299.633 114.863L299.259 115.08V159.028L278 171.463L256.741 159.028V115.08ZM354.241 58.2627L353.87 58.0449L332.967 45.8193L353.49 33.8145L374.75 46.249V71.1357L354.241 83.1309V58.2627Z" stroke="url(#paint3_linear_16285_104524)" stroke-opacity="0.33" stroke-width="1.5"/>
</g>
<defs>
<linearGradient id="paint0_linear_16285_104524" x1="81" y1="115" x2="142.5" y2="200" gradientUnits="userSpaceOnUse">
<stop stop-color="white"/>
<stop offset="1" stop-color="white" stop-opacity="0"/>
</linearGradient>
<linearGradient id="paint1_linear_16285_104524" x1="338.156" y1="146.616" x2="214.143" y2="29.6562" gradientUnits="userSpaceOnUse">
<stop stop-color="white"/>
<stop offset="1" stop-color="white" stop-opacity="0"/>
</linearGradient>
<linearGradient id="paint2_linear_16285_104524" x1="198.803" y1="2.22788" x2="198.803" y2="189.559" gradientUnits="userSpaceOnUse">
<stop stop-color="white" stop-opacity="0.25"/>
<stop offset="0.5" stop-color="white"/>
</linearGradient>
<linearGradient id="paint3_linear_16285_104524" x1="285.5" y1="119.5" x2="172.525" y2="28.3181" gradientUnits="userSpaceOnUse">
<stop stop-color="white"/>
<stop offset="1" stop-color="white" stop-opacity="0"/>
</linearGradient>
<clipPath id="clip0_16285_104524">
<rect width="330" height="205" fill="white"/>
</clipPath>
</defs>
</svg>
