<svg width="24" height="24" viewBox="-4 -4 24 24" fill="none" xmlns="http://www.w3.org/2000/svg">
    <path d="M5.42075 2.94583C6.80819 1.80875 8.5354 1.98734 9.86005 3.07373C10.0669 3.24323 10.5703 3.71479 11.0481 4.18664C11.288 4.42354 11.5238 4.66292 11.7156 4.8665C11.9036 5.06594 12.0597 5.2432 12.1307 5.35003C12.2155 5.47779 12.271 5.62432 12.271 5.77747C12.2706 5.93384 12.2122 6.08398 12.0948 6.21276L12.0937 6.21388L12.0488 6.26212L12.0477 6.261C11.8014 6.52856 11.4177 6.47189 11.1794 6.27895L11.176 6.27558C10.8222 5.97155 10.453 5.567 10.0788 5.17053C9.70032 4.76952 9.3117 4.37232 8.90532 4.06323C8.49885 3.75413 8.08771 3.54382 7.66564 3.49892C7.25128 3.45499 6.80313 3.56753 6.31377 3.94768C5.74062 4.5024 5.5017 5.00886 5.46114 5.47007C5.42039 5.93554 5.57978 6.38679 5.86053 6.8354C6.14226 7.28538 6.53798 7.71904 6.94988 8.14689C7.25493 8.46373 7.57133 8.78039 7.84627 9.09151L8.10542 9.40115L8.11103 9.40788L8.11552 9.41461C8.33744 9.76562 8.18001 10.1287 7.92704 10.3132C7.67547 10.4963 7.2863 10.5377 7.00485 10.2392C6.79625 10.0384 6.58661 9.80208 6.37548 9.55821C6.16258 9.31231 5.94755 9.05884 5.72254 8.81553C5.27056 8.32681 4.79684 7.90258 4.2697 7.69925C3.86019 7.54144 3.51357 7.49433 3.19269 7.5478C2.87141 7.60153 2.55729 7.7593 2.2189 8.03806C1.74288 8.43003 1.45236 8.88788 1.35393 9.36189C1.23969 9.9136 1.37994 10.5131 1.83185 11.0918C2.08539 11.4165 2.53907 11.8368 2.99188 12.2586C3.43249 12.669 3.88143 13.0882 4.08796 13.3906H4.08571C4.30597 13.678 4.22013 14.0327 4.0184 14.2398C3.91433 14.3464 3.77196 14.4242 3.61003 14.4384C3.44544 14.4527 3.27498 14.4003 3.11977 14.2746C2.79785 14.0306 2.17602 13.4246 1.60299 12.8038C1.31372 12.4905 1.03318 12.1693 0.805326 11.8839C0.580926 11.6027 0.396306 11.3422 0.311698 11.1547C0.130328 10.7522 0.0317943 10.3442 0.00654534 9.94526C-0.0229248 9.47736 0.0481194 9.02194 0.199509 8.60013C0.738053 7.10094 2.30179 6.01188 4.03859 6.22959C3.84399 4.92753 4.42734 3.7605 5.42075 2.94583Z" fill="white"/>
<path d="M12.004 2.11676C12.2769 1.92276 12.6662 1.9613 12.9912 2.30187L13.3065 2.56776C13.6542 2.87931 14.0861 3.3158 14.4889 3.76705C15.0219 4.36402 15.5283 5.01396 15.7174 5.44988C16.8178 7.98587 14.5242 10.6115 11.9535 10.2897C12.1254 11.3055 11.742 12.3255 11.0762 13.0832C10.3552 13.9034 9.28272 14.4407 8.1761 14.3352C7.20936 14.2428 6.4405 13.7163 5.76629 13.0944C5.42908 12.7833 5.11073 12.4423 4.80147 12.1161C4.49035 11.788 4.18815 11.4745 3.87929 11.2051L3.85797 11.1861L3.84339 11.1603C3.67017 10.8578 3.72979 10.5287 3.91967 10.3189C4.08755 10.1341 4.35383 10.0461 4.62534 10.1405L4.74314 10.1932L4.75772 10.2011L4.77118 10.2134C5.13488 10.5232 5.51375 10.935 5.89755 11.3375C6.28584 11.7447 6.68397 12.1462 7.09909 12.456C7.51444 12.7661 7.93339 12.9734 8.36233 13.0091C8.78461 13.0441 9.24051 12.9146 9.73888 12.5054C10.3559 11.9987 10.6099 11.5305 10.6543 11.0997C10.6989 10.6655 10.5355 10.2296 10.2381 9.78147C9.94044 9.33288 9.52195 8.8908 9.08483 8.44531C8.65263 8.00484 8.19982 7.55842 7.85748 7.11587L7.84739 7.10353C7.64401 6.78174 7.71522 6.42973 7.92592 6.21949C8.13907 6.00732 8.48948 5.94563 8.79314 6.1791C9.15898 6.46247 9.53839 6.84499 9.92287 7.22245C10.3117 7.60413 10.7098 7.98564 11.1244 8.28824C11.539 8.59087 11.9582 8.80524 12.3876 8.86489C12.8103 8.92348 13.2586 8.83383 13.7429 8.5014C14.3544 7.99208 14.616 7.51417 14.6696 7.06988C14.7235 6.62069 14.57 6.16983 14.2814 5.71128C13.9924 5.25228 13.5789 4.80144 13.1393 4.35492C12.7048 3.9136 12.2396 3.47134 11.8727 3.04793L11.8649 3.03895L11.8581 3.02885C11.6391 2.69082 11.7361 2.3076 12.004 2.11676Z" fill="white"/>
</svg>
