<svg width="24" height="24" viewBox="0 0 24 24" fill="none" xmlns="http://www.w3.org/2000/svg">
<g clip-path="url(#clip0_15392_239056)">
<path d="M0 8C0 5.19974 0 3.79961 0.544967 2.73005C1.02433 1.78924 1.78924 1.02433 2.73005 0.544967C3.79961 0 5.19974 0 8 0H16C18.8003 0 20.2004 0 21.27 0.544967C22.2108 1.02433 22.9757 1.78924 23.455 2.73005C24 3.79961 24 5.19974 24 8V16C24 18.8003 24 20.2004 23.455 21.27C22.9757 22.2108 22.2108 22.9757 21.27 23.455C20.2004 24 18.8003 24 16 24H8C5.19974 24 3.79961 24 2.73005 23.455C1.78924 22.9757 1.02433 22.2108 0.544967 21.27C0 20.2004 0 18.8003 0 16V8Z" fill="#01ED99"/>
<path d="M0 8C0 5.19974 0 3.79961 0.544967 2.73005C1.02433 1.78924 1.78924 1.02433 2.73005 0.544967C3.79961 0 5.19974 0 8 0H16C18.8003 0 20.2004 0 21.27 0.544967C22.2108 1.02433 22.9757 1.78924 23.455 2.73005C24 3.79961 24 5.19974 24 8V16C24 18.8003 24 20.2004 23.455 21.27C22.9757 22.2108 22.2108 22.9757 21.27 23.455C20.2004 24 18.8003 24 16 24H8C5.19974 24 3.79961 24 2.73005 23.455C1.78924 22.9757 1.02433 22.2108 0.544967 21.27C0 20.2004 0 18.8003 0 16V8Z" fill="#FA4D01"/>
<path d="M15.9637 5.961L13.1816 10.0897C12.9893 10.3709 13.3592 10.7113 13.6256 10.4745L16.3633 8.09196C16.4373 8.03277 16.5409 8.07717 16.5409 8.18075V15.6243C16.5409 15.7279 16.4077 15.7723 16.3485 15.6983L8.06139 5.78342C7.79502 5.45785 7.41026 5.28027 6.98111 5.28027H6.68514C5.91563 5.28027 5.2793 5.9166 5.2793 6.70092V17.1782C5.2793 17.9625 5.91563 18.5988 6.69994 18.5988C7.18829 18.5988 7.64704 18.3472 7.91341 17.9181L10.6955 13.7893C10.8879 13.5082 10.5179 13.1678 10.2516 13.4046L7.51385 15.7723C7.43986 15.8315 7.33627 15.7871 7.33627 15.6835V8.25475C7.33627 8.15116 7.46946 8.10676 7.52865 8.18075L15.8157 18.0957C16.0821 18.4212 16.4817 18.5988 16.896 18.5988H17.192C17.9763 18.5988 18.6126 17.9625 18.6126 17.1782V6.70092C18.6126 5.9166 17.9763 5.28027 17.192 5.28027C16.6888 5.28027 16.2301 5.53185 15.9637 5.961Z" fill="black"/>
<path d="M15.9637 5.961L13.1816 10.0897C12.9893 10.3709 13.3592 10.7113 13.6256 10.4745L16.3633 8.09196C16.4373 8.03277 16.5409 8.07717 16.5409 8.18075V15.6243C16.5409 15.7279 16.4077 15.7723 16.3485 15.6983L8.06139 5.78342C7.79502 5.45785 7.41026 5.28027 6.98111 5.28027H6.68514C5.91563 5.28027 5.2793 5.9166 5.2793 6.70092V17.1782C5.2793 17.9625 5.91563 18.5988 6.69994 18.5988C7.18829 18.5988 7.64704 18.3472 7.91341 17.9181L10.6955 13.7893C10.8879 13.5082 10.5179 13.1678 10.2516 13.4046L7.51385 15.7723C7.43986 15.8315 7.33627 15.7871 7.33627 15.6835V8.25475C7.33627 8.15116 7.46946 8.10676 7.52865 8.18075L15.8157 18.0957C16.0821 18.4212 16.4817 18.5988 16.896 18.5988H17.192C17.9763 18.5988 18.6126 17.9625 18.6126 17.1782V6.70092C18.6126 5.9166 17.9763 5.28027 17.192 5.28027C16.6888 5.28027 16.2301 5.53185 15.9637 5.961Z" fill="white"/>
</g>
<defs>
<clipPath id="clip0_15392_239056">
<rect width="24" height="24" fill="white"/>
</clipPath>
</defs>
</svg>
