<svg width="32" height="32" viewBox="0 0 32 32" fill="none" xmlns="http://www.w3.org/2000/svg">
<path d="M7.51434 4.90147L16.006 0L24.4978 4.90147L21.3758 6.7122L16.006 3.62147L10.6363 6.7122L7.51434 4.90147ZM24.4978 11.0829L21.3758 9.2722L16.006 12.3629L10.6363 9.2722L7.51434 11.0829V14.7044L12.8841 17.7951V23.9765L16.006 25.7873L19.128 23.9765V17.7951L24.4978 14.7044V11.0829ZM24.4978 20.8859V17.2644L21.3758 19.0751V22.6965L24.4978 20.8859ZM26.7143 22.1659L21.3446 25.2565V28.878L29.8363 23.9765V14.1736L26.7143 15.9844V22.1659ZM23.5924 7.9922L26.7143 9.80292V13.4244L29.8363 11.6137V7.9922L26.7143 6.18147L23.5924 7.9922ZM12.8841 26.5679V30.1893L16.006 32L19.128 30.1893V26.5679L16.006 28.3785L12.8841 26.5679ZM7.51434 20.8859L10.6363 22.6965V19.0751L7.51434 17.2644V20.8859ZM12.8841 7.9922L16.006 9.80292L19.128 7.9922L16.006 6.18147L12.8841 7.9922ZM5.29773 9.80292L8.41969 7.9922L5.29773 6.18147L2.17578 7.9922V11.6137L5.29773 13.4244V9.80292ZM5.29773 15.9844L2.17578 14.1736V23.9765L10.6675 28.878V25.2565L5.29773 22.1659V15.9844Z" fill="white"/>
</svg>
