<svg width="45" height="45" viewBox="0 0 45 45" fill="none" xmlns="http://www.w3.org/2000/svg">
<rect x="1" y="1" width="43" height="43" rx="6" fill="white"/>
<rect x="1" y="1" width="43" height="43" rx="6" stroke="black" stroke-width="2"/>
<path d="M13.5524 10.7945L22.5085 5.625L31.4646 10.7945L28.1719 12.7043L22.5085 9.44452L16.8451 12.7043L13.5524 10.7945ZM31.4646 17.314L28.1719 15.4043L22.5085 18.664L16.8451 15.4043L13.5524 17.314V21.1335L19.2158 24.3932V30.9128L22.5085 32.8226L25.8012 30.9128V24.3932L31.4646 21.1335V17.314ZM31.4646 27.6531V23.8335L28.1719 25.7432V29.5628L31.4646 27.6531ZM33.8024 29.0031L28.139 32.2628V36.0823L37.0951 30.9128V20.5737L33.8024 22.4835V29.0031ZM30.5098 14.0543L33.8024 15.964V19.7835L37.0951 17.8738V14.0543L33.8024 12.1445L30.5098 14.0543ZM19.2158 33.6458V37.4653L22.5085 39.375L25.8012 37.4653V33.6458L22.5085 35.5555L19.2158 33.6458ZM13.5524 27.6531L16.8451 29.5628V25.7432L13.5524 23.8335V27.6531ZM19.2158 14.0543L22.5085 15.964L25.8012 14.0543L22.5085 12.1445L19.2158 14.0543ZM11.2146 15.964L14.5072 14.0543L11.2146 12.1445L7.92188 14.0543V17.8738L11.2146 19.7835V15.964ZM11.2146 22.4835L7.92188 20.5737V30.9128L16.878 36.0823V32.2628L11.2146 29.0031V22.4835Z" fill="black"/>
</svg>
