<svg width="45" height="45" viewBox="0 0 45 45" fill="none" xmlns="http://www.w3.org/2000/svg">
<g clip-path="url(#clip0_16761_649255)">
<g clip-path="url(#clip1_16761_649255)">
<path d="M0 12.8C0 8.31958 0 6.07937 0.871948 4.36808C1.63893 2.86278 2.86278 1.63893 4.36808 0.871948C6.07937 0 8.31958 0 12.8 0H32.2C36.6804 0 38.9206 0 40.6319 0.871948C42.1372 1.63893 43.3611 2.86278 44.1281 4.36808C45 6.07937 45 8.31958 45 12.8V32.2C45 36.6804 45 38.9206 44.1281 40.6319C43.3611 42.1372 42.1372 43.3611 40.6319 44.1281C38.9206 45 36.6804 45 32.2 45H12.8C8.31958 45 6.07937 45 4.36808 44.1281C2.86278 43.3611 1.63893 42.1372 0.871948 40.6319C0 38.9206 0 36.6804 0 32.2V12.8Z" fill="#F7931A"/>
<path d="M32.2002 43V45H12.7998V43H32.2002ZM43 32.2002V12.7998C43 10.5267 42.9983 8.94166 42.8975 7.70801C42.7986 6.49806 42.614 5.80299 42.3457 5.27637C41.7705 4.14739 40.8526 3.22954 39.7236 2.6543C39.197 2.38599 38.5019 2.20143 37.292 2.10254C36.0583 2.00175 34.4733 2 32.2002 2H12.7998C10.5267 2 8.94166 2.00175 7.70801 2.10254C6.49806 2.20143 5.80299 2.38599 5.27637 2.6543C4.14739 3.22954 3.22954 4.14739 2.6543 5.27637C2.38599 5.80299 2.20143 6.49806 2.10254 7.70801C2.00175 8.94166 2 10.5267 2 12.7998V32.2002C2 34.4733 2.00175 36.0583 2.10254 37.292C2.20143 38.5019 2.38599 39.197 2.6543 39.7236C3.22954 40.8526 4.14739 41.7705 5.27637 42.3457C5.80299 42.614 6.49806 42.7986 7.70801 42.8975C8.94166 42.9983 10.5267 43 12.7998 43V45C8.59928 45 6.36791 44.9998 4.69531 44.2812L4.36816 44.1279C2.95709 43.409 1.79343 42.2885 1.02148 40.9111L0.87207 40.6318C0.109113 39.1344 0.0138717 37.2321 0.00195312 33.7783L0 32.2002V12.7998C1.73159e-10 8.59928 0.000163913 6.36791 0.71875 4.69531L0.87207 4.36816C1.59105 2.95709 2.71146 1.79343 4.08887 1.02148L4.36816 0.87207C6.07943 0.000145555 8.31953 1.84691e-10 12.7998 0H32.2002L33.7783 0.00195312C37.2321 0.0138717 39.1344 0.109113 40.6318 0.87207C42.1371 1.63906 43.3609 2.86287 44.1279 4.36816C44.9999 6.07943 45 8.31953 45 12.7998V32.2002L44.998 33.7783C44.9861 37.2321 44.8909 39.1344 44.1279 40.6318C43.3609 42.1371 42.1371 43.3609 40.6318 44.1279C39.1344 44.8909 37.2321 44.9861 33.7783 44.998L32.2002 45V43C34.4733 43 36.0583 42.9983 37.292 42.8975C38.5019 42.7986 39.197 42.614 39.7236 42.3457C40.8526 41.7705 41.7705 40.8526 42.3457 39.7236C42.614 39.197 42.7986 38.5019 42.8975 37.292C42.9983 36.0583 43 34.4733 43 32.2002Z" fill="black"/>
<g clip-path="url(#clip2_16761_649255)">
<path d="M11.6546 23.7159L27.9421 9.68088C28.6518 9.22637 29.3283 9.68088 28.8951 10.4606L23.697 20.6837H32.967C32.967 20.6837 34.4398 20.6837 32.967 21.8966L16.9394 36.0182C15.8131 36.9712 15.0334 36.4514 15.8131 34.9786L20.838 25.0155H11.6546C11.6546 25.0155 10.1818 25.0155 11.6546 23.7159Z" fill="white"/>
</g>
</g>
</g>
<defs>
<clipPath id="clip0_16761_649255">
<rect width="45" height="45" fill="white"/>
</clipPath>
<clipPath id="clip1_16761_649255">
<rect width="45" height="45" fill="white"/>
</clipPath>
<clipPath id="clip2_16761_649255">
<rect width="27" height="27" fill="white" transform="translate(9.5 9.5)"/>
</clipPath>
</defs>
</svg>
