<svg width="150" height="175" viewBox="0 0 150 175" fill="none" xmlns="http://www.w3.org/2000/svg">
<path d="M28.9505 26.8049L75.0001 0L121.05 26.8049L104.12 36.7073L75.0001 19.8049L45.8804 36.7073L28.9505 26.8049ZM121.05 60.6098L104.12 50.7073L75.0001 67.6098L45.8804 50.7073L28.9505 60.6098V80.4147L58.0699 97.3171V131.122L75.0001 141.024L91.9301 131.122V97.3171L121.05 80.4147V60.6098ZM121.05 114.22V94.4147L104.12 104.317V124.122L121.05 114.22ZM133.07 121.22L103.951 138.122V157.927L150 131.122V77.5122L133.07 87.4147V121.22ZM116.14 43.7073L133.07 53.6098V73.4147L150 63.5122V43.7073L133.07 33.8049L116.14 43.7073ZM58.0699 145.293V165.098L75.0001 175L91.9301 165.098V145.293L75.0001 155.195L58.0699 145.293ZM28.9505 114.22L45.8804 124.122V104.317L28.9505 94.4147V114.22ZM58.0699 43.7073L75.0001 53.6098L91.9301 43.7073L75.0001 33.8049L58.0699 43.7073ZM16.93 53.6098L33.86 43.7073L16.93 33.8049L0 43.7073V63.5122L16.93 73.4147V53.6098ZM16.93 87.4147L0 77.5122V131.122L46.0496 157.927V138.122L16.93 121.22V87.4147Z" fill="white"/>
</svg>
