<svg width="24" height="24" viewBox="0 0 24 24" fill="none" xmlns="http://www.w3.org/2000/svg">
<g clip-path="url(#clip0_16394_200924)">
<path d="M0 8C0 5.19974 0 3.79961 0.544967 2.73005C1.02433 1.78924 1.78924 1.02433 2.73005 0.544967C3.79961 0 5.19974 0 8 0H16C18.8003 0 20.2004 0 21.27 0.544967C22.2108 1.02433 22.9757 1.78924 23.455 2.73005C24 3.79961 24 5.19974 24 8V16C24 18.8003 24 20.2004 23.455 21.27C22.9757 22.2108 22.2108 22.9757 21.27 23.455C20.2004 24 18.8003 24 16 24H8C5.19974 24 3.79961 24 2.73005 23.455C1.78924 22.9757 1.02433 22.2108 0.544967 21.27C0 20.2004 0 18.8003 0 16V8Z" fill="url(#paint0_linear_16394_200924)"/>
<path d="M0 8C0 5.19974 0 3.79961 0.544967 2.73005C1.02433 1.78924 1.78924 1.02433 2.73005 0.544967C3.79961 0 5.19974 0 8 0H16C18.8003 0 20.2004 0 21.27 0.544967C22.2108 1.02433 22.9757 1.78924 23.455 2.73005C24 3.79961 24 5.19974 24 8V16C24 18.8003 24 20.2004 23.455 21.27C22.9757 22.2108 22.2108 22.9757 21.27 23.455C20.2004 24 18.8003 24 16 24H8C5.19974 24 3.79961 24 2.73005 23.455C1.78924 22.9757 1.02433 22.2108 0.544967 21.27C0 20.2004 0 18.8003 0 16V8Z" fill="url(#paint1_linear_16394_200924)"/>
<path d="M9.09835 6.06406C10.6592 4.78485 12.6023 4.98576 14.0926 6.20795C14.3253 6.39863 14.8916 6.92914 15.4291 7.45997C15.699 7.72648 15.9643 7.99579 16.1801 8.22481C16.3915 8.44918 16.5671 8.6486 16.6471 8.76878C16.7424 8.91252 16.8049 9.07736 16.8048 9.24965C16.8045 9.42557 16.7387 9.59447 16.6067 9.73935L16.6054 9.74062L16.5549 9.79489L16.5537 9.79362C16.2766 10.0946 15.8449 10.0309 15.5768 9.81382L15.573 9.81003C15.175 9.468 14.7596 9.01288 14.3387 8.56685C13.9129 8.11571 13.4757 7.66886 13.0185 7.32113C12.5612 6.97339 12.0987 6.7368 11.6238 6.68629C11.1577 6.63686 10.6535 6.76347 10.103 7.19114C9.4582 7.81519 9.18941 8.38497 9.14378 8.90383C9.09793 9.42748 9.27725 9.93514 9.5931 10.4398C9.91005 10.9461 10.3552 11.4339 10.8186 11.9152C11.1618 12.2717 11.5177 12.6279 11.827 12.978L12.1186 13.3263L12.1249 13.3339L12.13 13.3414C12.3796 13.7363 12.2025 14.1448 11.9179 14.3524C11.6349 14.5584 11.1971 14.6049 10.8805 14.2691C10.6458 14.0432 10.4099 13.7773 10.1724 13.503C9.9329 13.2263 9.69099 12.9412 9.43786 12.6675C8.92938 12.1177 8.39645 11.6404 7.80341 11.4117C7.34271 11.2341 6.95277 11.1811 6.59178 11.2413C6.23033 11.3017 5.87695 11.4792 5.49626 11.7928C4.96074 12.2338 4.6339 12.7489 4.52317 13.2821C4.39465 13.9028 4.55243 14.5772 5.06083 15.2283C5.34607 15.5936 5.85645 16.0664 6.36586 16.5409C6.86155 17.0027 7.3666 17.4742 7.59895 17.8144H7.59643C7.84421 18.1377 7.74764 18.5367 7.5207 18.7698C7.40362 18.8897 7.24346 18.9772 7.06129 18.9932C6.87612 19.0093 6.68435 18.9503 6.50974 18.8089C6.14758 18.5345 5.44802 17.8526 4.80336 17.1543C4.47793 16.8018 4.16233 16.4405 3.90599 16.1194C3.65354 15.803 3.44584 15.51 3.35066 15.299C3.14662 14.8463 3.03577 14.3872 3.00736 13.9384C2.97421 13.412 3.05413 12.8997 3.22445 12.4251C3.83031 10.7386 5.58951 9.51337 7.54342 9.75829C7.32449 8.29347 7.98076 6.98057 9.09835 6.06406Z" fill="url(#paint2_linear_16394_200924)"/>
<path d="M16.5045 5.13136C16.8115 4.91311 17.2495 4.95646 17.6151 5.33961L17.9698 5.63873C18.361 5.98922 18.8468 6.48028 19.3001 6.98793C19.8996 7.65952 20.4694 8.39071 20.6821 8.88111C21.92 11.7341 19.3397 14.688 16.4477 14.3259C16.6411 15.4687 16.2097 16.6162 15.4607 17.4686C14.6496 18.3913 13.4431 18.9958 12.1981 18.8771C11.1105 18.7732 10.2456 18.1808 9.48708 17.4812C9.10771 17.1312 8.74957 16.7476 8.40166 16.3806C8.05165 16.0114 7.71167 15.6588 7.3642 15.3558L7.34022 15.3343L7.32381 15.3053C7.12895 14.965 7.19602 14.5947 7.40963 14.3587C7.5985 14.1508 7.89806 14.0518 8.20351 14.158L8.33603 14.2174L8.35244 14.2262L8.36758 14.2401C8.77674 14.5886 9.20297 15.0519 9.63475 15.5047C10.0716 15.9628 10.5195 16.4144 10.9865 16.763C11.4537 17.1118 11.9251 17.3451 12.4076 17.3853C12.8827 17.4246 13.3956 17.279 13.9562 16.8186C14.6504 16.2485 14.9361 15.7218 14.9861 15.2371C15.0362 14.7486 14.8524 14.2583 14.5179 13.7542C14.183 13.2495 13.7122 12.7522 13.2204 12.251C12.7342 11.7554 12.2248 11.2532 11.8397 10.7554L11.8283 10.7415C11.5995 10.3795 11.6796 9.98345 11.9167 9.74693C12.1565 9.50823 12.5507 9.43883 12.8923 9.70149C13.3038 10.0203 13.7307 10.4506 14.1632 10.8753C14.6006 11.3046 15.0486 11.7338 15.515 12.0743C15.9814 12.4147 16.4529 12.6559 16.9361 12.723C17.4116 12.7889 17.916 12.6881 18.4607 12.3141C19.1487 11.7411 19.443 11.2034 19.5033 10.7036C19.5639 10.1983 19.3912 9.69106 19.0666 9.17519C18.7415 8.65882 18.2763 8.15162 17.7817 7.64929C17.2929 7.1528 16.7695 6.65526 16.3568 6.17892L16.348 6.16882L16.3404 6.15746C16.094 5.77718 16.2031 5.34605 16.5045 5.13136Z" fill="url(#paint3_linear_16394_200924)"/>
</g>
<defs>
<linearGradient id="paint0_linear_16394_200924" x1="12" y1="0" x2="12" y2="24" gradientUnits="userSpaceOnUse">
<stop stop-color="#1C60CA"/>
<stop offset="1" stop-color="#002394"/>
</linearGradient>
<linearGradient id="paint1_linear_16394_200924" x1="12" y1="0" x2="12" y2="24" gradientUnits="userSpaceOnUse">
<stop stop-color="#2F79EE"/>
<stop offset="1" stop-color="#0030CF"/>
</linearGradient>
<linearGradient id="paint2_linear_16394_200924" x1="12" y1="5" x2="12" y2="18.9958" gradientUnits="userSpaceOnUse">
<stop stop-color="white"/>
<stop offset="1" stop-color="#C7DCFF"/>
</linearGradient>
<linearGradient id="paint3_linear_16394_200924" x1="12" y1="5" x2="12" y2="18.9958" gradientUnits="userSpaceOnUse">
<stop stop-color="white"/>
<stop offset="1" stop-color="#C7DCFF"/>
</linearGradient>
<clipPath id="clip0_16394_200924">
<rect width="24" height="24" fill="white"/>
</clipPath>
</defs>
</svg>
