<svg width="24" height="24" viewBox="0 0 24 24" fill="none" xmlns="http://www.w3.org/2000/svg">
    <g clip-path="url(#clip0_16845_60754)">
        <g clip-path="url(#clip1_16845_60754)">
            <path d="M0 8C0 5.19974 0 3.79961 0.544967 2.73005C1.02433 1.78924 1.78924 1.02433 2.73005 0.544967C3.79961 0 5.19974 0 8 0H16C18.8003 0 20.2004 0 21.27 0.544967C22.2108 1.02433 22.9757 1.78924 23.455 2.73005C24 3.79961 24 5.19974 24 8V16C24 18.8003 24 20.2004 23.455 21.27C22.9757 22.2108 22.2108 22.9757 21.27 23.455C20.2004 24 18.8003 24 16 24H8C5.19974 24 3.79961 24 2.73005 23.455C1.78924 22.9757 1.02433 22.2108 0.544967 21.27C0 20.2004 0 18.8003 0 16V8Z" fill="url(#paint0_linear_16845_60754)"/>
            <path d="M0 8C0 5.19974 0 3.79961 0.544967 2.73005C1.02433 1.78924 1.78924 1.02433 2.73005 0.544967C3.79961 0 5.19974 0 8 0H16C18.8003 0 20.2004 0 21.27 0.544967C22.2108 1.02433 22.9757 1.78924 23.455 2.73005C24 3.79961 24 5.19974 24 8V16C24 18.8003 24 20.2004 23.455 21.27C22.9757 22.2108 22.2108 22.9757 21.27 23.455C20.2004 24 18.8003 24 16 24H8C5.19974 24 3.79961 24 2.73005 23.455C1.78924 22.9757 1.02433 22.2108 0.544967 21.27C0 20.2004 0 18.8003 0 16V8Z" fill="url(#paint1_linear_16845_60754)"/>
            <path d="M11.8691 3.35876C14.2163 3.35876 16.1192 5.26162 16.1192 7.60881V9.85891H17.4943C18.1155 9.85897 18.6191 10.3625 18.6191 10.9838V18.2337C18.6191 18.855 18.1155 19.3586 17.4943 19.3586H6.24403C5.62276 19.3586 5.11914 18.855 5.11914 18.2337V10.9838C5.11916 10.3625 5.62278 9.85897 6.24403 9.85891H7.61908V7.60881C7.6191 5.26165 9.52197 3.3588 11.8691 3.35876ZM11.8691 13.0787C11.049 13.0787 10.384 13.7436 10.384 14.5638C10.384 15.3839 11.049 16.0489 11.8691 16.0489C12.6893 16.0489 13.3543 15.3839 13.3543 14.5638C13.3543 13.7436 12.6893 13.0787 11.8691 13.0787ZM11.8691 5.35871C10.6265 5.35875 9.61938 6.36621 9.61936 7.60881V9.85891H14.1193V7.60881C14.1192 6.36619 13.1118 5.35871 11.8691 5.35871Z" fill="white"/>
            <path d="M11.8691 3.35876C14.2163 3.35876 16.1192 5.26162 16.1192 7.60881V9.85891H17.4943C18.1155 9.85897 18.6191 10.3625 18.6191 10.9838V18.2337C18.6191 18.855 18.1155 19.3586 17.4943 19.3586H6.24403C5.62276 19.3586 5.11914 18.855 5.11914 18.2337V10.9838C5.11916 10.3625 5.62278 9.85897 6.24403 9.85891H7.61908V7.60881C7.6191 5.26165 9.52197 3.3588 11.8691 3.35876ZM11.8691 13.0787C11.049 13.0787 10.384 13.7436 10.384 14.5638C10.384 15.3839 11.049 16.0489 11.8691 16.0489C12.6893 16.0489 13.3543 15.3839 13.3543 14.5638C13.3543 13.7436 12.6893 13.0787 11.8691 13.0787ZM11.8691 5.35871C10.6265 5.35875 9.61938 6.36621 9.61936 7.60881V9.85891H14.1193V7.60881C14.1192 6.36619 13.1118 5.35871 11.8691 5.35871Z" fill="url(#paint2_linear_16845_60754)"/>
            <path d="M11.8691 3.35876C14.2163 3.35876 16.1192 5.26162 16.1192 7.60881V9.85891H17.4943C18.1155 9.85897 18.6191 10.3625 18.6191 10.9838V18.2337C18.6191 18.855 18.1155 19.3586 17.4943 19.3586H6.24403C5.62276 19.3586 5.11914 18.855 5.11914 18.2337V10.9838C5.11916 10.3625 5.62278 9.85897 6.24403 9.85891H7.61908V7.60881C7.6191 5.26165 9.52197 3.3588 11.8691 3.35876ZM11.8691 13.0787C11.049 13.0787 10.384 13.7436 10.384 14.5638C10.384 15.3839 11.049 16.0489 11.8691 16.0489C12.6893 16.0489 13.3543 15.3839 13.3543 14.5638C13.3543 13.7436 12.6893 13.0787 11.8691 13.0787ZM11.8691 5.35871C10.6265 5.35875 9.61938 6.36621 9.61936 7.60881V9.85891H14.1193V7.60881C14.1192 6.36619 13.1118 5.35871 11.8691 5.35871Z" fill="url(#paint3_linear_16845_60754)"/>
            <path d="M11.8691 3.35876C14.2163 3.35876 16.1192 5.26162 16.1192 7.60881V9.85891H17.4943C18.1155 9.85897 18.6191 10.3625 18.6191 10.9838V18.2337C18.6191 18.855 18.1155 19.3586 17.4943 19.3586H6.24403C5.62276 19.3586 5.11914 18.855 5.11914 18.2337V10.9838C5.11916 10.3625 5.62278 9.85897 6.24403 9.85891H7.61908V7.60881C7.6191 5.26165 9.52197 3.3588 11.8691 3.35876ZM11.8691 13.0787C11.049 13.0787 10.384 13.7436 10.384 14.5638C10.384 15.3839 11.049 16.0489 11.8691 16.0489C12.6893 16.0489 13.3543 15.3839 13.3543 14.5638C13.3543 13.7436 12.6893 13.0787 11.8691 13.0787ZM11.8691 5.35871C10.6265 5.35875 9.61938 6.36621 9.61936 7.60881V9.85891H14.1193V7.60881C14.1192 6.36619 13.1118 5.35871 11.8691 5.35871Z" fill="url(#paint4_linear_16845_60754)"/>
        </g>
    </g>
    <defs>
        <linearGradient id="paint0_linear_16845_60754" x1="12" y1="0" x2="12" y2="24" gradientUnits="userSpaceOnUse">
            <stop stop-color="#8F8F8F"/>
            <stop offset="1" stop-color="#6D6D6D"/>
        </linearGradient>
        <linearGradient id="paint1_linear_16845_60754" x1="12" y1="0" x2="12" y2="24" gradientUnits="userSpaceOnUse">
            <stop stop-color="#F7931A"/>
            <stop offset="1" stop-color="#F67300"/>
        </linearGradient>
        <linearGradient id="paint2_linear_16845_60754" x1="11.8691" y1="3.35876" x2="11.8691" y2="19.3586" gradientUnits="userSpaceOnUse">
            <stop stop-color="white"/>
            <stop offset="1" stop-color="#A4B8FF"/>
        </linearGradient>
        <linearGradient id="paint3_linear_16845_60754" x1="11.8691" y1="3.35876" x2="11.8691" y2="19.3586" gradientUnits="userSpaceOnUse">
            <stop stop-color="white"/>
            <stop offset="1" stop-color="#A4CEFF"/>
        </linearGradient>
        <linearGradient id="paint4_linear_16845_60754" x1="11.8691" y1="3.35876" x2="11.8691" y2="19.3586" gradientUnits="userSpaceOnUse">
            <stop stop-color="#5F330B"/>
            <stop offset="1" stop-color="#462100"/>
        </linearGradient>
        <clipPath id="clip0_16845_60754">
            <rect width="24" height="24" fill="white"/>
        </clipPath>
        <clipPath id="clip1_16845_60754">
            <rect width="24" height="24" fill="white"/>
        </clipPath>
    </defs>
</svg>
