<svg width="24" height="24" viewBox="0 0 24 24" fill="none" xmlns="http://www.w3.org/2000/svg">
    <g clip-path="url(#clip0_16845_60955)">
        <g clip-path="url(#clip1_16845_60955)">
            <path d="M0 8C0 5.19974 0 3.79961 0.544967 2.73005C1.02433 1.78924 1.78924 1.02433 2.73005 0.544967C3.79961 0 5.19974 0 8 0H16C18.8003 0 20.2004 0 21.27 0.544967C22.2108 1.02433 22.9757 1.78924 23.455 2.73005C24 3.79961 24 5.19974 24 8V16C24 18.8003 24 20.2004 23.455 21.27C22.9757 22.2108 22.2108 22.9757 21.27 23.455C20.2004 24 18.8003 24 16 24H8C5.19974 24 3.79961 24 2.73005 23.455C1.78924 22.9757 1.02433 22.2108 0.544967 21.27C0 20.2004 0 18.8003 0 16V8Z" fill="black"/>
            <path d="M0 8C0 5.19974 0 3.79961 0.544967 2.73005C1.02433 1.78924 1.78924 1.02433 2.73005 0.544967C3.79961 0 5.19974 0 8 0H16C18.8003 0 20.2004 0 21.27 0.544967C22.2108 1.02433 22.9757 1.78924 23.455 2.73005C24 3.79961 24 5.19974 24 8V16C24 18.8003 24 20.2004 23.455 21.27C22.9757 22.2108 22.2108 22.9757 21.27 23.455C20.2004 24 18.8003 24 16 24H8C5.19974 24 3.79961 24 2.73005 23.455C1.78924 22.9757 1.02433 22.2108 0.544967 21.27C0 20.2004 0 18.8003 0 16V8Z" fill="url(#paint0_linear_16845_60955)"/>
            <path d="M0 8C0 5.19974 0 3.79961 0.544967 2.73005C1.02433 1.78924 1.78924 1.02433 2.73005 0.544967C3.79961 0 5.19974 0 8 0H16C18.8003 0 20.2004 0 21.27 0.544967C22.2108 1.02433 22.9757 1.78924 23.455 2.73005C24 3.79961 24 5.19974 24 8V16C24 18.8003 24 20.2004 23.455 21.27C22.9757 22.2108 22.2108 22.9757 21.27 23.455C20.2004 24 18.8003 24 16 24H8C5.19974 24 3.79961 24 2.73005 23.455C1.78924 22.9757 1.02433 22.2108 0.544967 21.27C0 20.2004 0 18.8003 0 16V8Z" fill="url(#paint1_linear_16845_60955)"/>
            <path d="M0 8C0 5.19974 0 3.79961 0.544967 2.73005C1.02433 1.78924 1.78924 1.02433 2.73005 0.544967C3.79961 0 5.19974 0 8 0H16C18.8003 0 20.2004 0 21.27 0.544967C22.2108 1.02433 22.9757 1.78924 23.455 2.73005C24 3.79961 24 5.19974 24 8V16C24 18.8003 24 20.2004 23.455 21.27C22.9757 22.2108 22.2108 22.9757 21.27 23.455C20.2004 24 18.8003 24 16 24H8C5.19974 24 3.79961 24 2.73005 23.455C1.78924 22.9757 1.02433 22.2108 0.544967 21.27C0 20.2004 0 18.8003 0 16V8Z" fill="url(#paint2_linear_16845_60955)"/>
            <path d="M0 8C0 5.19974 0 3.79961 0.544967 2.73005C1.02433 1.78924 1.78924 1.02433 2.73005 0.544967C3.79961 0 5.19974 0 8 0H16C18.8003 0 20.2004 0 21.27 0.544967C22.2108 1.02433 22.9757 1.78924 23.455 2.73005C24 3.79961 24 5.19974 24 8V16C24 18.8003 24 20.2004 23.455 21.27C22.9757 22.2108 22.2108 22.9757 21.27 23.455C20.2004 24 18.8003 24 16 24H8C5.19974 24 3.79961 24 2.73005 23.455C1.78924 22.9757 1.02433 22.2108 0.544967 21.27C0 20.2004 0 18.8003 0 16V8Z" fill="#2C5CF6"/>
            <path d="M0 8C0 5.19974 0 3.79961 0.544967 2.73005C1.02433 1.78924 1.78924 1.02433 2.73005 0.544967C3.79961 0 5.19974 0 8 0H16C18.8003 0 20.2004 0 21.27 0.544967C22.2108 1.02433 22.9757 1.78924 23.455 2.73005C24 3.79961 24 5.19974 24 8V16C24 18.8003 24 20.2004 23.455 21.27C22.9757 22.2108 22.2108 22.9757 21.27 23.455C20.2004 24 18.8003 24 16 24H8C5.19974 24 3.79961 24 2.73005 23.455C1.78924 22.9757 1.02433 22.2108 0.544967 21.27C0 20.2004 0 18.8003 0 16V8Z" fill="url(#paint3_linear_16845_60955)"/>
            <path d="M0 8C0 5.19974 0 3.79961 0.544967 2.73005C1.02433 1.78924 1.78924 1.02433 2.73005 0.544967C3.79961 0 5.19974 0 8 0H16C18.8003 0 20.2004 0 21.27 0.544967C22.2108 1.02433 22.9757 1.78924 23.455 2.73005C24 3.79961 24 5.19974 24 8V16C24 18.8003 24 20.2004 23.455 21.27C22.9757 22.2108 22.2108 22.9757 21.27 23.455C20.2004 24 18.8003 24 16 24H8C5.19974 24 3.79961 24 2.73005 23.455C1.78924 22.9757 1.02433 22.2108 0.544967 21.27C0 20.2004 0 18.8003 0 16V8Z" fill="url(#paint4_linear_16845_60955)"/>
            <path d="M12 20.8489C9.98136 20.2984 8.31007 19.1102 6.98613 17.2843C5.66204 15.4584 5 13.417 5 11.1602V5.79006L12 3.16949L19 5.79006V11.1602C19 13.417 18.338 15.4584 17.0139 17.2843C15.6899 19.1102 14.0186 20.2984 12 20.8489ZM12 19.3736C13.5089 18.9069 14.7689 17.9852 15.78 16.6086C16.7911 15.2319 17.3822 13.6958 17.5533 12.0002H12V4.6591L6.4 6.75023V11.5714C6.4 11.6862 6.41556 11.8291 6.44667 12.0002H12V19.3736Z" fill="#E3E3E3"/>
            <path d="M12 20.8489C9.98136 20.2984 8.31007 19.1102 6.98613 17.2843C5.66204 15.4584 5 13.417 5 11.1602V5.79006L12 3.16949L19 5.79006V11.1602C19 13.417 18.338 15.4584 17.0139 17.2843C15.6899 19.1102 14.0186 20.2984 12 20.8489ZM12 19.3736C13.5089 18.9069 14.7689 17.9852 15.78 16.6086C16.7911 15.2319 17.3822 13.6958 17.5533 12.0002H12V4.6591L6.4 6.75023V11.5714C6.4 11.6862 6.41556 11.8291 6.44667 12.0002H12V19.3736Z" fill="url(#paint5_linear_16845_60955)"/>
        </g>
    </g>
    <defs>
        <linearGradient id="paint0_linear_16845_60955" x1="12" y1="0" x2="12" y2="24" gradientUnits="userSpaceOnUse">
            <stop stop-color="#2C2C2C"/>
            <stop offset="1" stop-color="#191919"/>
        </linearGradient>
        <linearGradient id="paint1_linear_16845_60955" x1="12" y1="0" x2="12" y2="24" gradientUnits="userSpaceOnUse">
            <stop stop-color="#351C83"/>
            <stop offset="1" stop-color="#0C0033"/>
        </linearGradient>
        <linearGradient id="paint2_linear_16845_60955" x1="12" y1="0" x2="12" y2="24" gradientUnits="userSpaceOnUse">
            <stop stop-color="#FF6200"/>
            <stop offset="1" stop-color="#E20F0F"/>
        </linearGradient>
        <linearGradient id="paint3_linear_16845_60955" x1="12" y1="0" x2="12" y2="24" gradientUnits="userSpaceOnUse">
            <stop stop-color="#2C5CF6"/>
            <stop offset="1" stop-color="#0F37FF"/>
        </linearGradient>
        <linearGradient id="paint4_linear_16845_60955" x1="12" y1="0" x2="12" y2="24" gradientUnits="userSpaceOnUse">
            <stop stop-color="#3B96FF"/>
            <stop offset="1" stop-color="#0044F0"/>
        </linearGradient>
        <linearGradient id="paint5_linear_16845_60955" x1="12" y1="3.16949" x2="12" y2="20.8489" gradientUnits="userSpaceOnUse">
            <stop stop-color="white"/>
            <stop offset="1" stop-color="#A4CEFF"/>
        </linearGradient>
        <clipPath id="clip0_16845_60955">
            <rect width="24" height="24" fill="white"/>
        </clipPath>
        <clipPath id="clip1_16845_60955">
            <rect width="24" height="24" fill="white"/>
        </clipPath>
    </defs>
</svg>
