<svg width="500" height="500" viewBox="0 0 500 500" fill="none" xmlns="http://www.w3.org/2000/svg">
<path fill-rule="evenodd" clip-rule="evenodd" d="M193.317 268.886C203.335 268.886 212.943 272.866 220.026 279.95C227.11 287.033 231.09 296.641 231.09 306.659V382.204C231.09 392.221 227.11 401.83 220.026 408.914C212.943 415.997 203.335 419.976 193.317 419.976H117.772C107.755 419.976 98.1462 415.997 91.0625 408.914C83.9788 401.83 80 392.221 80 382.204V306.659C80.0001 296.641 83.9789 287.033 91.0625 279.95C98.1462 272.866 107.755 268.886 117.772 268.886H193.317ZM382.228 268.886C392.245 268.886 401.853 272.866 408.937 279.95C416.02 287.033 420 296.641 420 306.659V382.204C420 392.221 416.02 401.83 408.937 408.914C401.853 415.997 392.245 419.976 382.228 419.976H306.683C296.665 419.976 287.056 415.997 279.973 408.914C272.889 401.83 268.91 392.221 268.91 382.204V306.659C268.91 296.641 272.889 287.033 279.973 279.95C287.056 272.866 296.665 268.886 306.683 268.886H382.228ZM193.317 80.0239C203.335 80.024 212.943 84.0038 220.026 91.0874C227.11 98.1711 231.09 107.779 231.09 117.796V193.341C231.09 203.359 227.11 212.967 220.026 220.05C212.943 227.134 203.335 231.114 193.317 231.114H117.772C107.755 231.114 98.1462 227.134 91.0625 220.05C83.9789 212.967 80 203.359 80 193.341V117.796C80 107.779 83.979 98.1711 91.0625 91.0874C98.1462 84.0037 107.755 80.0239 117.772 80.0239H193.317ZM344.434 80.0249C349.059 80.0255 353.525 81.7244 356.981 84.7983C360.438 87.8722 362.646 92.1077 363.188 96.7017L363.32 98.9116V136.684H401.093C405.906 136.689 410.536 138.533 414.036 141.837C417.536 145.142 419.644 149.658 419.926 154.463C420.208 159.269 418.644 164.001 415.555 167.692C412.465 171.383 408.083 173.755 403.303 174.324L401.093 174.457H363.32V212.229C363.315 217.043 361.471 221.673 358.167 225.173C354.863 228.673 350.346 230.78 345.541 231.062C340.736 231.344 336.003 229.781 332.312 226.691C328.62 223.601 326.248 219.219 325.68 214.439L325.548 212.229V174.457H287.775C282.962 174.451 278.331 172.608 274.831 169.303C271.331 165.999 269.225 161.483 268.942 156.677C268.66 151.872 270.224 147.14 273.313 143.449C276.403 139.757 280.785 137.384 285.565 136.816L287.775 136.684H325.548V98.9116C325.548 93.9028 327.537 89.099 331.079 85.5571C334.621 82.0153 339.425 80.025 344.434 80.0249Z" fill="white"/>
<path fill-rule="evenodd" clip-rule="evenodd" d="M193.317 268.886C203.335 268.886 212.943 272.866 220.026 279.95C227.11 287.033 231.09 296.641 231.09 306.659V382.204C231.09 392.221 227.11 401.83 220.026 408.914C212.943 415.997 203.335 419.976 193.317 419.976H117.772C107.755 419.976 98.1462 415.997 91.0625 408.914C83.9788 401.83 80 392.221 80 382.204V306.659C80.0001 296.641 83.9789 287.033 91.0625 279.95C98.1462 272.866 107.755 268.886 117.772 268.886H193.317ZM382.228 268.886C392.245 268.886 401.853 272.866 408.937 279.95C416.02 287.033 420 296.641 420 306.659V382.204C420 392.221 416.02 401.83 408.937 408.914C401.853 415.997 392.245 419.976 382.228 419.976H306.683C296.665 419.976 287.056 415.997 279.973 408.914C272.889 401.83 268.91 392.221 268.91 382.204V306.659C268.91 296.641 272.889 287.033 279.973 279.95C287.056 272.866 296.665 268.886 306.683 268.886H382.228ZM193.317 80.0239C203.335 80.024 212.943 84.0038 220.026 91.0874C227.11 98.1711 231.09 107.779 231.09 117.796V193.341C231.09 203.359 227.11 212.967 220.026 220.05C212.943 227.134 203.335 231.114 193.317 231.114H117.772C107.755 231.114 98.1462 227.134 91.0625 220.05C83.9789 212.967 80 203.359 80 193.341V117.796C80 107.779 83.979 98.1711 91.0625 91.0874C98.1462 84.0037 107.755 80.0239 117.772 80.0239H193.317ZM344.434 80.0249C349.059 80.0255 353.525 81.7244 356.981 84.7983C360.438 87.8722 362.646 92.1077 363.188 96.7017L363.32 98.9116V136.684H401.093C405.906 136.689 410.536 138.533 414.036 141.837C417.536 145.142 419.644 149.658 419.926 154.463C420.208 159.269 418.644 164.001 415.555 167.692C412.465 171.383 408.083 173.755 403.303 174.324L401.093 174.457H363.32V212.229C363.315 217.043 361.471 221.673 358.167 225.173C354.863 228.673 350.346 230.78 345.541 231.062C340.736 231.344 336.003 229.781 332.312 226.691C328.62 223.601 326.248 219.219 325.68 214.439L325.548 212.229V174.457H287.775C282.962 174.451 278.331 172.608 274.831 169.303C271.331 165.999 269.225 161.483 268.942 156.677C268.66 151.872 270.224 147.14 273.313 143.449C276.403 139.757 280.785 137.384 285.565 136.816L287.775 136.684H325.548V98.9116C325.548 93.9028 327.537 89.099 331.079 85.5571C334.621 82.0153 339.425 80.025 344.434 80.0249Z" fill="white"/>
<path fill-rule="evenodd" clip-rule="evenodd" d="M193.317 268.886C203.335 268.886 212.943 272.866 220.026 279.95C227.11 287.033 231.09 296.641 231.09 306.659V382.204C231.09 392.221 227.11 401.83 220.026 408.914C212.943 415.997 203.335 419.976 193.317 419.976H117.772C107.755 419.976 98.1462 415.997 91.0625 408.914C83.9788 401.83 80 392.221 80 382.204V306.659C80.0001 296.641 83.9789 287.033 91.0625 279.95C98.1462 272.866 107.755 268.886 117.772 268.886H193.317ZM382.228 268.886C392.245 268.886 401.853 272.866 408.937 279.95C416.02 287.033 420 296.641 420 306.659V382.204C420 392.221 416.02 401.83 408.937 408.914C401.853 415.997 392.245 419.976 382.228 419.976H306.683C296.665 419.976 287.056 415.997 279.973 408.914C272.889 401.83 268.91 392.221 268.91 382.204V306.659C268.91 296.641 272.889 287.033 279.973 279.95C287.056 272.866 296.665 268.886 306.683 268.886H382.228ZM193.317 80.0239C203.335 80.024 212.943 84.0038 220.026 91.0874C227.11 98.1711 231.09 107.779 231.09 117.796V193.341C231.09 203.359 227.11 212.967 220.026 220.05C212.943 227.134 203.335 231.114 193.317 231.114H117.772C107.755 231.114 98.1462 227.134 91.0625 220.05C83.9789 212.967 80 203.359 80 193.341V117.796C80 107.779 83.979 98.1711 91.0625 91.0874C98.1462 84.0037 107.755 80.0239 117.772 80.0239H193.317ZM344.434 80.0249C349.059 80.0255 353.525 81.7244 356.981 84.7983C360.438 87.8722 362.646 92.1077 363.188 96.7017L363.32 98.9116V136.684H401.093C405.906 136.689 410.536 138.533 414.036 141.837C417.536 145.142 419.644 149.658 419.926 154.463C420.208 159.269 418.644 164.001 415.555 167.692C412.465 171.383 408.083 173.755 403.303 174.324L401.093 174.457H363.32V212.229C363.315 217.043 361.471 221.673 358.167 225.173C354.863 228.673 350.346 230.78 345.541 231.062C340.736 231.344 336.003 229.781 332.312 226.691C328.62 223.601 326.248 219.219 325.68 214.439L325.548 212.229V174.457H287.775C282.962 174.451 278.331 172.608 274.831 169.303C271.331 165.999 269.225 161.483 268.942 156.677C268.66 151.872 270.224 147.14 273.313 143.449C276.403 139.757 280.785 137.384 285.565 136.816L287.775 136.684H325.548V98.9116C325.548 93.9028 327.537 89.099 331.079 85.5571C334.621 82.0153 339.425 80.025 344.434 80.0249Z" fill="white"/>
<path fill-rule="evenodd" clip-rule="evenodd" d="M193.317 268.886C203.335 268.886 212.943 272.866 220.026 279.95C227.11 287.033 231.09 296.641 231.09 306.659V382.204C231.09 392.221 227.11 401.83 220.026 408.914C212.943 415.997 203.335 419.976 193.317 419.976H117.772C107.755 419.976 98.1462 415.997 91.0625 408.914C83.9788 401.83 80 392.221 80 382.204V306.659C80.0001 296.641 83.9789 287.033 91.0625 279.95C98.1462 272.866 107.755 268.886 117.772 268.886H193.317ZM382.228 268.886C392.245 268.886 401.853 272.866 408.937 279.95C416.02 287.033 420 296.641 420 306.659V382.204C420 392.221 416.02 401.83 408.937 408.914C401.853 415.997 392.245 419.976 382.228 419.976H306.683C296.665 419.976 287.056 415.997 279.973 408.914C272.889 401.83 268.91 392.221 268.91 382.204V306.659C268.91 296.641 272.889 287.033 279.973 279.95C287.056 272.866 296.665 268.886 306.683 268.886H382.228ZM193.317 80.0239C203.335 80.024 212.943 84.0038 220.026 91.0874C227.11 98.1711 231.09 107.779 231.09 117.796V193.341C231.09 203.359 227.11 212.967 220.026 220.05C212.943 227.134 203.335 231.114 193.317 231.114H117.772C107.755 231.114 98.1462 227.134 91.0625 220.05C83.9789 212.967 80 203.359 80 193.341V117.796C80 107.779 83.979 98.1711 91.0625 91.0874C98.1462 84.0037 107.755 80.0239 117.772 80.0239H193.317ZM344.434 80.0249C349.059 80.0255 353.525 81.7244 356.981 84.7983C360.438 87.8722 362.646 92.1077 363.188 96.7017L363.32 98.9116V136.684H401.093C405.906 136.689 410.536 138.533 414.036 141.837C417.536 145.142 419.644 149.658 419.926 154.463C420.208 159.269 418.644 164.001 415.555 167.692C412.465 171.383 408.083 173.755 403.303 174.324L401.093 174.457H363.32V212.229C363.315 217.043 361.471 221.673 358.167 225.173C354.863 228.673 350.346 230.78 345.541 231.062C340.736 231.344 336.003 229.781 332.312 226.691C328.62 223.601 326.248 219.219 325.68 214.439L325.548 212.229V174.457H287.775C282.962 174.451 278.331 172.608 274.831 169.303C271.331 165.999 269.225 161.483 268.942 156.677C268.66 151.872 270.224 147.14 273.313 143.449C276.403 139.757 280.785 137.384 285.565 136.816L287.775 136.684H325.548V98.9116C325.548 93.9028 327.537 89.099 331.079 85.5571C334.621 82.0153 339.425 80.025 344.434 80.0249Z" fill="white"/>
<path fill-rule="evenodd" clip-rule="evenodd" d="M193.317 268.886C203.335 268.886 212.943 272.866 220.026 279.95C227.11 287.033 231.09 296.641 231.09 306.659V382.204C231.09 392.221 227.11 401.83 220.026 408.914C212.943 415.997 203.335 419.976 193.317 419.976H117.772C107.755 419.976 98.1462 415.997 91.0625 408.914C83.9788 401.83 80 392.221 80 382.204V306.659C80.0001 296.641 83.9789 287.033 91.0625 279.95C98.1462 272.866 107.755 268.886 117.772 268.886H193.317ZM382.228 268.886C392.245 268.886 401.853 272.866 408.937 279.95C416.02 287.033 420 296.641 420 306.659V382.204C420 392.221 416.02 401.83 408.937 408.914C401.853 415.997 392.245 419.976 382.228 419.976H306.683C296.665 419.976 287.056 415.997 279.973 408.914C272.889 401.83 268.91 392.221 268.91 382.204V306.659C268.91 296.641 272.889 287.033 279.973 279.95C287.056 272.866 296.665 268.886 306.683 268.886H382.228ZM193.317 80.0239C203.335 80.024 212.943 84.0038 220.026 91.0874C227.11 98.1711 231.09 107.779 231.09 117.796V193.341C231.09 203.359 227.11 212.967 220.026 220.05C212.943 227.134 203.335 231.114 193.317 231.114H117.772C107.755 231.114 98.1462 227.134 91.0625 220.05C83.9789 212.967 80 203.359 80 193.341V117.796C80 107.779 83.979 98.1711 91.0625 91.0874C98.1462 84.0037 107.755 80.0239 117.772 80.0239H193.317ZM344.434 80.0249C349.059 80.0255 353.525 81.7244 356.981 84.7983C360.438 87.8722 362.646 92.1077 363.188 96.7017L363.32 98.9116V136.684H401.093C405.906 136.689 410.536 138.533 414.036 141.837C417.536 145.142 419.644 149.658 419.926 154.463C420.208 159.269 418.644 164.001 415.555 167.692C412.465 171.383 408.083 173.755 403.303 174.324L401.093 174.457H363.32V212.229C363.315 217.043 361.471 221.673 358.167 225.173C354.863 228.673 350.346 230.78 345.541 231.062C340.736 231.344 336.003 229.781 332.312 226.691C328.62 223.601 326.248 219.219 325.68 214.439L325.548 212.229V174.457H287.775C282.962 174.451 278.331 172.608 274.831 169.303C271.331 165.999 269.225 161.483 268.942 156.677C268.66 151.872 270.224 147.14 273.313 143.449C276.403 139.757 280.785 137.384 285.565 136.816L287.775 136.684H325.548V98.9116C325.548 93.9028 327.537 89.099 331.079 85.5571C334.621 82.0153 339.425 80.025 344.434 80.0249Z" fill="white"/>
</svg>
