<svg width="101" height="18" viewBox="0 0 101 18" fill="none" xmlns="http://www.w3.org/2000/svg">
<path d="M2.25677 14H1.19277V3.92H2.27077V9.198H2.00477C2.07944 8.74067 2.24744 8.33933 2.50877 7.994C2.77011 7.64867 3.09677 7.378 3.48877 7.182C3.89011 6.986 4.32411 6.888 4.79077 6.888C5.42544 6.888 5.98544 7.04667 6.47077 7.364C6.95611 7.68133 7.33877 8.12 7.61877 8.68C7.89877 9.23067 8.03877 9.856 8.03877 10.556C8.03877 11.2653 7.89411 11.8953 7.60477 12.446C7.31544 12.9967 6.91877 13.4307 6.41477 13.748C5.92011 14.0653 5.35077 14.224 4.70677 14.224C4.14677 14.224 3.64744 14.098 3.20877 13.846C2.77011 13.5847 2.43411 13.2347 2.20077 12.796C1.96744 12.348 1.87877 11.8487 1.93477 11.298L2.14477 11.018C2.18211 11.4567 2.30811 11.8487 2.52277 12.194C2.74677 12.53 3.03611 12.796 3.39077 12.992C3.74544 13.188 4.13277 13.286 4.55277 13.286C5.01944 13.286 5.42544 13.1693 5.77077 12.936C6.12544 12.7027 6.40077 12.3807 6.59677 11.97C6.80211 11.5593 6.90477 11.088 6.90477 10.556C6.90477 10.024 6.80677 9.55267 6.61077 9.142C6.42411 8.73133 6.15811 8.40933 5.81277 8.176C5.47677 7.94267 5.08477 7.826 4.63677 7.826C4.17944 7.826 3.77344 7.952 3.41877 8.204C3.06411 8.44667 2.78411 8.78733 2.57877 9.226C2.37344 9.66467 2.27077 10.1733 2.27077 10.752V12.11L2.25677 12.138V14ZM14.4424 7.112H15.5344L12.2584 15.218C12.0717 15.6847 11.8337 16.0487 11.5444 16.31C11.2644 16.5807 10.821 16.716 10.2144 16.716H9.40235V15.792H10.2144C10.5317 15.792 10.779 15.7173 10.9564 15.568C11.1337 15.4187 11.2737 15.1993 11.3764 14.91L11.6984 14.028L8.89835 7.112H10.0464L12.4404 13.412H12.0344L14.4424 7.112Z" fill="#D7E2F7"/>
<g clip-path="url(#clip0_16275_104476)">
<path d="M34.4082 1.00879C34.5514 0.981807 34.6995 1.01863 34.8135 1.11035C34.9311 1.20526 34.9999 1.34873 35 1.5V10.0225C34.9999 10.155 34.9471 10.2822 34.8535 10.376L28.3857 16.8535C28.2921 16.9473 28.1647 17 28.0322 17C27.8999 16.9999 27.7733 16.9471 27.6797 16.8535L23.1465 12.3135C23.0529 12.2197 23 12.0926 23 11.96V3.90039C23 3.66513 23.164 3.46121 23.3936 3.41113L34.3945 1.01172L34.4082 1.00879ZM28.5244 12.6709L28.5264 15.2959L34.001 9.81445V6.76172L28.5244 12.6709ZM23.999 4.30273V11.7529L27.5273 15.2871L27.5215 8.47461C27.5215 8.46488 27.5229 8.45491 27.5234 8.44531C27.5246 8.42472 27.5256 8.40415 27.5293 8.38379C27.5316 8.37081 27.5357 8.35832 27.5391 8.3457C27.5444 8.32563 27.5498 8.30557 27.5576 8.28613C27.562 8.2753 27.5681 8.26533 27.5732 8.25488C27.5818 8.23744 27.5899 8.21971 27.6006 8.20312C27.609 8.19 27.6193 8.17826 27.6289 8.16602C27.6374 8.15515 27.6447 8.14312 27.6543 8.13281L33.0479 2.32812L23.999 4.30273ZM28.5205 8.66895L28.5225 11.2021L34.001 5.29004V2.77148L28.5205 8.66895Z" fill="#D7E2F7"/>
</g>
<path d="M48.385 11.55L49.169 12.32C48.7677 12.908 48.231 13.3747 47.559 13.72C46.887 14.056 46.187 14.224 45.459 14.224C44.7777 14.224 44.1477 14.0933 43.569 13.832C42.9904 13.5707 42.4817 13.202 42.043 12.726C41.6137 12.25 41.2777 11.6947 41.035 11.06C40.8017 10.4253 40.685 9.73933 40.685 9.002C40.685 8.25533 40.8064 7.56467 41.049 6.93C41.2917 6.29533 41.6277 5.74 42.057 5.264C42.4864 4.788 42.995 4.41933 43.583 4.158C44.171 3.89667 44.8057 3.766 45.487 3.766C46.2524 3.766 46.9477 3.92933 47.573 4.256C48.2077 4.58267 48.7397 5.054 49.169 5.67L48.385 6.44C48.0397 5.88933 47.6197 5.474 47.125 5.194C46.6397 4.914 46.0844 4.774 45.459 4.774C44.7684 4.774 44.1477 4.956 43.597 5.32C43.0557 5.684 42.6264 6.18333 42.309 6.818C42.001 7.45267 41.847 8.18067 41.847 9.002C41.847 9.80467 42.001 10.528 42.309 11.172C42.6264 11.8067 43.0557 12.306 43.597 12.67C44.1477 13.034 44.7684 13.216 45.459 13.216C46.075 13.216 46.6304 13.076 47.125 12.796C47.629 12.5067 48.049 12.0913 48.385 11.55ZM55.5355 14H54.5135V12.656L54.4995 12.264V9.702C54.4995 9.12333 54.3222 8.666 53.9675 8.33C53.6222 7.98467 53.1462 7.812 52.5395 7.812C51.7462 7.812 51.0742 8.14333 50.5235 8.806L49.8235 8.12C50.6075 7.29867 51.5362 6.888 52.6095 6.888C53.1975 6.888 53.7109 7.00467 54.1495 7.238C54.5882 7.462 54.9289 7.784 55.1715 8.204C55.4142 8.61467 55.5355 9.1 55.5355 9.66V14ZM52.0775 14.224C51.5922 14.224 51.1629 14.1307 50.7895 13.944C50.4162 13.7573 50.1222 13.5007 49.9075 13.174C49.7022 12.838 49.5995 12.46 49.5995 12.04C49.5995 11.34 49.8655 10.7847 50.3975 10.374C50.9389 9.96333 51.6622 9.758 52.5675 9.758H54.6255V10.626H52.6935C52.0682 10.626 51.5829 10.7473 51.2375 10.99C50.8922 11.2233 50.7195 11.5593 50.7195 11.998C50.7195 12.3993 50.8549 12.7213 51.1255 12.964C51.4055 13.2067 51.7742 13.328 52.2315 13.328C52.6795 13.328 53.0809 13.2347 53.4355 13.048C53.7902 12.852 54.0749 12.586 54.2895 12.25C54.5042 11.9047 54.6255 11.5127 54.6535 11.074L55.0595 11.312C55.0595 11.872 54.9289 12.3713 54.6675 12.81C54.4155 13.2487 54.0655 13.594 53.6175 13.846C53.1695 14.098 52.6562 14.224 52.0775 14.224ZM58.0271 14H56.9491V3.92H58.0271V14ZM63.1651 14H61.6111L57.6771 10.43H57.8171L61.3451 7.112H62.7871L59.0351 10.556V10.304L63.1651 14ZM68.3314 12.026L69.0594 12.726C68.6954 13.23 68.2661 13.608 67.7714 13.86C67.2861 14.1027 66.7494 14.224 66.1614 14.224C65.4708 14.224 64.8594 14.0653 64.3274 13.748C63.8048 13.4307 63.3941 12.9967 63.0954 12.446C62.8061 11.886 62.6614 11.256 62.6614 10.556C62.6614 9.856 62.8061 9.23067 63.0954 8.68C63.3941 8.12 63.7954 7.68133 64.2994 7.364C64.8128 7.04667 65.3868 6.888 66.0214 6.888C66.6468 6.888 67.1974 7.042 67.6734 7.35C68.1588 7.658 68.5368 8.08733 68.8074 8.638C69.0781 9.17933 69.2134 9.80467 69.2134 10.514V10.598H68.1214V10.5C68.1214 9.69733 67.9301 9.05333 67.5474 8.568C67.1648 8.07333 66.6561 7.826 66.0214 7.826C65.5921 7.826 65.2048 7.94267 64.8594 8.176C64.5234 8.4 64.2574 8.71733 64.0614 9.128C63.8748 9.53867 63.7814 10.01 63.7814 10.542C63.7814 11.074 63.8794 11.5453 64.0754 11.956C64.2808 12.3667 64.5654 12.6933 64.9294 12.936C65.3028 13.1693 65.7368 13.286 66.2314 13.286C66.6608 13.286 67.0481 13.1833 67.3934 12.978C67.7388 12.7727 68.0514 12.4553 68.3314 12.026ZM69.2134 10.934H63.5154V10.052H69.0034L69.2134 10.514V10.934ZM78.9264 14H72.9204V3.99H74.0404V13.006H78.9264V14ZM85.1598 14H84.1378V12.656L84.1238 12.264V9.702C84.1238 9.12333 83.9464 8.666 83.5918 8.33C83.2464 7.98467 82.7704 7.812 82.1638 7.812C81.3704 7.812 80.6984 8.14333 80.1478 8.806L79.4478 8.12C80.2318 7.29867 81.1604 6.888 82.2338 6.888C82.8218 6.888 83.3351 7.00467 83.7738 7.238C84.2124 7.462 84.5531 7.784 84.7958 8.204C85.0384 8.61467 85.1598 9.1 85.1598 9.66V14ZM81.7018 14.224C81.2164 14.224 80.7871 14.1307 80.4138 13.944C80.0404 13.7573 79.7464 13.5007 79.5318 13.174C79.3264 12.838 79.2238 12.46 79.2238 12.04C79.2238 11.34 79.4898 10.7847 80.0218 10.374C80.5631 9.96333 81.2864 9.758 82.1918 9.758H84.2498V10.626H82.3178C81.6924 10.626 81.2071 10.7473 80.8618 10.99C80.5164 11.2233 80.3438 11.5593 80.3438 11.998C80.3438 12.3993 80.4791 12.7213 80.7498 12.964C81.0298 13.2067 81.3984 13.328 81.8558 13.328C82.3038 13.328 82.7051 13.2347 83.0598 13.048C83.4144 12.852 83.6991 12.586 83.9138 12.25C84.1284 11.9047 84.2498 11.5127 84.2778 11.074L84.6838 11.312C84.6838 11.872 84.5531 12.3713 84.2918 12.81C84.0398 13.2487 83.6898 13.594 83.2418 13.846C82.7938 14.098 82.2804 14.224 81.7018 14.224ZM87.6373 14H86.5733V3.92H87.6513V9.198H87.3853C87.46 8.74067 87.628 8.33933 87.8893 7.994C88.1507 7.64867 88.4773 7.378 88.8693 7.182C89.2707 6.986 89.7047 6.888 90.1713 6.888C90.806 6.888 91.366 7.04667 91.8513 7.364C92.3367 7.68133 92.7193 8.12 92.9993 8.68C93.2793 9.23067 93.4193 9.856 93.4193 10.556C93.4193 11.2653 93.2747 11.8953 92.9853 12.446C92.696 12.9967 92.2993 13.4307 91.7953 13.748C91.3007 14.0653 90.7313 14.224 90.0873 14.224C89.5273 14.224 89.028 14.098 88.5893 13.846C88.1507 13.5847 87.8147 13.2347 87.5813 12.796C87.348 12.348 87.2593 11.8487 87.3153 11.298L87.5253 11.018C87.5627 11.4567 87.6887 11.8487 87.9033 12.194C88.1273 12.53 88.4167 12.796 88.7713 12.992C89.126 13.188 89.5133 13.286 89.9333 13.286C90.4 13.286 90.806 13.1693 91.1513 12.936C91.506 12.7027 91.7813 12.3807 91.9773 11.97C92.1827 11.5593 92.2853 11.088 92.2853 10.556C92.2853 10.024 92.1873 9.55267 91.9913 9.142C91.8047 8.73133 91.5387 8.40933 91.1933 8.176C90.8573 7.94267 90.4653 7.826 90.0173 7.826C89.56 7.826 89.154 7.952 88.7993 8.204C88.4447 8.44667 88.1647 8.78733 87.9593 9.226C87.754 9.66467 87.6513 10.1733 87.6513 10.752V12.11L87.6373 12.138V14ZM93.7123 12.936L94.4123 12.194C94.711 12.5393 95.0517 12.8147 95.4343 13.02C95.8263 13.216 96.265 13.314 96.7503 13.314C97.2543 13.314 97.6603 13.1973 97.9683 12.964C98.2857 12.7307 98.4443 12.4273 98.4443 12.054C98.4443 11.746 98.309 11.5033 98.0383 11.326C97.777 11.1393 97.3243 10.9993 96.6803 10.906C95.7003 10.7473 95.0097 10.5187 94.6083 10.22C94.2163 9.92133 94.0203 9.506 94.0203 8.974C94.0203 8.554 94.1323 8.19 94.3563 7.882C94.5803 7.56467 94.893 7.322 95.2943 7.154C95.6957 6.97667 96.1577 6.888 96.6803 6.888C97.259 6.888 97.777 7 98.2343 7.224C98.6917 7.448 99.0977 7.76533 99.4523 8.176L98.7523 8.918C98.491 8.57267 98.1877 8.302 97.8423 8.106C97.5063 7.90067 97.119 7.798 96.6803 7.798C96.223 7.798 95.8497 7.90533 95.5603 8.12C95.271 8.32533 95.1263 8.59133 95.1263 8.918C95.1263 9.09533 95.1777 9.24933 95.2803 9.38C95.383 9.50133 95.5557 9.604 95.7983 9.688C96.041 9.772 96.3677 9.84667 96.7783 9.912C97.7957 10.0613 98.5143 10.304 98.9343 10.64C99.3543 10.9667 99.5643 11.4333 99.5643 12.04C99.5643 12.4693 99.443 12.852 99.2003 13.188C98.9577 13.5147 98.6217 13.7713 98.1923 13.958C97.7723 14.1353 97.2917 14.224 96.7503 14.224C96.0783 14.224 95.4997 14.112 95.0143 13.888C94.529 13.6547 94.095 13.3373 93.7123 12.936Z" fill="#D7E2F7"/>
<defs>
<clipPath id="clip0_16275_104476">
<rect width="16" height="16" fill="white" transform="translate(21 1)"/>
</clipPath>
</defs>
</svg>
