<svg width="500" height="500" viewBox="0 0 500 500" fill="none" xmlns="http://www.w3.org/2000/svg">
<path d="M127.314 358.631C144.762 345.685 163.769 335.461 184.336 327.959C204.9 320.46 226.788 316.711 250 316.711C273.212 316.711 295.1 320.46 315.664 327.959C336.231 335.461 355.238 345.685 372.686 358.631C385.446 344.604 395.557 328.368 403.019 309.922C410.48 291.475 414.211 271.501 414.211 250C414.211 204.5 398.217 165.757 366.23 133.77C334.243 101.783 295.5 85.7896 250 85.7896C204.5 85.7896 165.757 101.783 133.77 133.77C101.783 165.757 85.7895 204.5 85.7895 250C85.7895 271.501 89.5201 291.475 96.9814 309.922C104.443 328.368 114.554 344.604 127.314 358.631ZM202.594 246.09C189.724 233.223 183.289 217.421 183.289 198.684C183.289 179.947 189.724 164.145 202.594 151.279C215.461 138.409 231.263 131.974 250 131.974C268.737 131.974 284.539 138.409 297.406 151.279C310.276 164.145 316.711 179.947 316.711 198.684C316.711 217.421 310.276 233.223 297.406 246.09C284.539 258.96 268.737 265.395 250 265.395C231.263 265.395 215.461 258.96 202.594 246.09ZM250 445C222.922 445 197.521 439.908 173.796 429.723C150.071 419.539 129.434 405.67 111.884 388.117C94.3301 370.567 80.4612 349.929 70.2767 326.204C60.0922 302.479 55 277.078 55 250C55 222.922 60.0922 197.521 70.2767 173.796C80.4612 150.071 94.3301 129.434 111.884 111.884C129.434 94.3302 150.071 80.4613 173.796 70.2768C197.521 60.0924 222.922 55.0001 250 55.0001C277.078 55.0001 302.479 60.0924 326.204 70.2768C349.929 80.4613 370.566 94.3302 388.116 111.884C405.67 129.434 419.539 150.071 429.723 173.796C439.908 197.521 445 222.922 445 250C445 277.078 439.908 302.479 429.723 326.204C419.539 349.929 405.67 370.567 388.116 388.117C370.566 405.67 349.929 419.539 326.204 429.723C302.479 439.908 277.078 445 250 445Z" fill="white"/>
</svg>
