<svg width="500" height="500" viewBox="0 0 500 500" fill="none" xmlns="http://www.w3.org/2000/svg">
<path d="M409.985 273.952V386.13C409.985 396.738 405.771 406.911 398.271 414.412C390.77 421.913 380.596 426.126 369.988 426.126H300V327C300 313.193 288.807 302 275 302H225C211.193 302 200 313.193 200 327V426.126H130.009C119.401 426.126 109.227 421.913 101.727 414.412C94.2258 406.911 90.0118 396.738 90.0117 386.13V273.952L249.998 113.966L409.985 273.952ZM249.989 58.3496C257.06 58.3496 263.841 61.1576 268.841 66.1562L329.982 127.298V92.8213C329.982 89.2854 331.387 85.8938 333.888 83.3936C336.388 80.8933 339.78 79.4883 343.315 79.4883H369.979C373.515 79.4883 376.906 80.8935 379.406 83.3936C381.906 85.8938 383.312 89.2854 383.312 92.8213V180.627L446.08 243.368C448.583 245.872 449.989 249.267 449.989 252.808C449.989 256.348 448.583 259.744 446.08 262.247C443.577 264.75 440.181 266.156 436.641 266.156C433.1 266.156 429.705 264.75 427.201 262.247L249.989 85.0078L72.7773 262.247C71.5379 263.486 70.0665 264.47 68.4473 265.141C66.8277 265.811 65.0909 266.156 63.3379 266.156C59.7978 266.156 56.4027 264.75 53.8994 262.247C52.6599 261.008 51.6767 259.535 51.0059 257.916C50.335 256.297 49.9893 254.561 49.9893 252.808C49.9893 251.055 50.3351 249.319 51.0059 247.699C51.6767 246.08 52.6599 244.608 53.8994 243.368L231.138 66.1562C236.138 61.1576 242.919 58.3497 249.989 58.3496Z" fill="white"/>
</svg>
