<svg width="24" height="24" viewBox="0 0 24 24" fill="none" xmlns="http://www.w3.org/2000/svg">
<path d="M15.7852 5.40039C16.1167 5.40039 16.4347 5.53207 16.6691 5.76648C16.9036 6.0009 17.0352 6.31891 17.0352 6.65043H7.03527C7.03527 6.31891 7.16695 6.0009 7.40137 5.76648C7.63578 5.53209 7.9537 5.4004 8.2852 5.40039H15.7852Z" fill="white"/>
<path fill-rule="evenodd" clip-rule="evenodd" d="M18.9102 16.6154C18.9102 16.9469 18.7786 17.2649 18.5441 17.4993C18.3097 17.7337 17.9917 17.8654 17.6602 17.8654H6.4102C6.0787 17.8654 5.76078 17.7337 5.52637 17.4993C5.29195 17.2649 5.16016 16.9469 5.16016 16.6154V9.15039C5.16016 8.81888 5.29195 8.50098 5.52637 8.26656C5.76078 8.03215 6.07868 7.90036 6.4102 7.90035H17.6602C17.9917 7.90035 18.3097 8.03214 18.5441 8.26656C18.7785 8.50098 18.9102 8.81889 18.9102 9.15039V16.6154ZM6.4102 16.6154H17.6602V9.15039H6.4102V16.6154Z" fill="white"/>
</svg>
