<svg width="16" height="16" viewBox="0 0 16 16" fill="none" xmlns="http://www.w3.org/2000/svg">
    <path d="M5.42075 2.94608C6.80819 1.809 8.5354 1.98758 9.86005 3.07397C10.0669 3.24347 10.5703 3.71503 11.0481 4.18688C11.288 4.42378 11.5238 4.66317 11.7156 4.86674C11.9036 5.06618 12.0597 5.24344 12.1307 5.35027C12.2155 5.47804 12.271 5.62456 12.271 5.77771C12.2706 5.93409 12.2122 6.08422 12.0948 6.213L12.0937 6.21412L12.0488 6.26237L12.0477 6.26124C11.8014 6.52881 11.4177 6.47214 11.1794 6.27919L11.176 6.27583C10.8222 5.9718 10.453 5.56724 10.0788 5.17077C9.70032 4.76977 9.3117 4.37256 8.90532 4.06347C8.49885 3.75437 8.08771 3.54407 7.66564 3.49917C7.25128 3.45523 6.80313 3.56778 6.31377 3.94792C5.74062 4.50264 5.5017 5.0091 5.46114 5.47032C5.42039 5.93578 5.57978 6.38703 5.86053 6.83565C6.14226 7.28562 6.53798 7.71929 6.94988 8.14713C7.25493 8.46398 7.57133 8.78063 7.84627 9.09176L8.10542 9.4014L8.11103 9.40813L8.11552 9.41486C8.33744 9.76586 8.18001 10.1289 7.92704 10.3135C7.67547 10.4966 7.2863 10.5379 7.00485 10.2394C6.79625 10.0386 6.58661 9.80233 6.37548 9.55846C6.16258 9.31255 5.94755 9.05908 5.72254 8.81577C5.27056 8.32706 4.79684 7.90283 4.2697 7.6995C3.86019 7.54169 3.51357 7.49457 3.19269 7.54804C2.87141 7.60177 2.55729 7.75954 2.2189 8.03831C1.74288 8.43027 1.45236 8.88812 1.35393 9.36213C1.23969 9.91384 1.37994 10.5133 1.83185 11.0921C2.08539 11.4168 2.53907 11.837 2.99188 12.2588C3.43249 12.6693 3.88143 13.0884 4.08796 13.3908H4.08571C4.30597 13.6782 4.22013 14.0329 4.0184 14.2401C3.91433 14.3466 3.77196 14.4244 3.61003 14.4387C3.44544 14.453 3.27498 14.4005 3.11977 14.2749C2.79785 14.0309 2.17602 13.4248 1.60299 12.8041C1.31372 12.4907 1.03318 12.1696 0.805326 11.8841C0.580926 11.6029 0.396306 11.3424 0.311698 11.1549C0.130328 10.7525 0.0317943 10.3444 0.00654534 9.94551C-0.0229248 9.47761 0.0481194 9.02218 0.199509 8.60037C0.738053 7.10119 2.30179 6.01213 4.03859 6.22983C3.84399 4.92777 4.42734 3.76075 5.42075 2.94608Z" fill="white"/>
    <path d="M12.004 2.11701C12.2769 1.92301 12.6662 1.96154 12.9912 2.30212L13.3065 2.568C13.6542 2.87955 14.0861 3.31605 14.4889 3.7673C15.0219 4.36426 15.5283 5.0142 15.7174 5.45012C16.8178 7.98611 14.5242 10.6118 11.9535 10.2899C12.1254 11.3058 11.742 12.3257 11.0762 13.0834C10.3552 13.9036 9.28272 14.4409 8.1761 14.3354C7.20936 14.2431 6.4405 13.7165 5.76629 13.0946C5.42908 12.7836 5.11073 12.4425 4.80147 12.1164C4.49035 11.7882 4.18815 11.4747 3.87929 11.2054L3.85797 11.1863L3.84339 11.1605C3.67017 10.858 3.72979 10.5289 3.91967 10.3191C4.08755 10.1343 4.35383 10.0463 4.62534 10.1407L4.74314 10.1934L4.75772 10.2013L4.77118 10.2136C5.13488 10.5235 5.51375 10.9352 5.89755 11.3378C6.28584 11.745 6.68397 12.1464 7.09909 12.4563C7.51444 12.7663 7.93339 12.9737 8.36233 13.0094C8.78461 13.0443 9.24051 12.9149 9.73888 12.5056C10.3559 11.9989 10.6099 11.5307 10.6543 11.0999C10.6989 10.6657 10.5355 10.2299 10.2381 9.78171C9.94044 9.33312 9.52195 8.89105 9.08483 8.44555C8.65263 8.00508 8.19982 7.55866 7.85748 7.11612L7.84739 7.10378C7.64401 6.78198 7.71522 6.42998 7.92592 6.21973C8.13907 6.00756 8.48948 5.94587 8.79314 6.17935C9.15898 6.46271 9.53839 6.84524 9.92287 7.2227C10.3117 7.60437 10.7098 7.98588 11.1244 8.28849C11.539 8.59111 11.9582 8.80549 12.3876 8.86514C12.8103 8.92372 13.2586 8.83407 13.7429 8.50165C14.3544 7.99233 14.616 7.51441 14.6696 7.07012C14.7235 6.62094 14.57 6.17007 14.2814 5.71152C13.9924 5.25253 13.5789 4.80168 13.1393 4.35516C12.7048 3.91384 12.2396 3.47159 11.8727 3.04817L11.8649 3.0392L11.8581 3.0291C11.6391 2.69107 11.7361 2.30785 12.004 2.11701Z" fill="white"/>
</svg>
