<svg width="16" height="16" viewBox="0 0 16 16" fill="none" xmlns="http://www.w3.org/2000/svg">
    <g clip-path="url(#clip0_15593_73600)">
        <path d="M13.2192 14.6563L7.32438 8.72818C6.72516 8.8034 6.15888 8.96962 5.62555 9.22684C5.09221 9.48418 4.62855 9.81968 4.23455 10.2333L3.19355 9.17184C3.58755 8.77784 4.03177 8.43679 4.52621 8.14868C5.02066 7.86068 5.54399 7.64445 6.09621 7.50001L4.12171 5.52568C3.64049 5.7419 3.16527 6.00984 2.69605 6.32951C2.22682 6.64918 1.79521 7.00601 1.40121 7.40001L0.373047 6.33851C0.77138 5.94018 1.19638 5.57906 1.64805 5.25518C2.09971 4.93118 2.55505 4.65212 3.01405 4.41801L1.55005 2.95384L2.25255 2.25134L13.955 13.9538L13.2192 14.6563ZM8.00121 13.8077C7.62433 13.8077 7.30571 13.6758 7.04538 13.4122C6.78516 13.1485 6.65505 12.8316 6.65505 12.4615C6.65505 12.0846 6.78516 11.7661 7.04538 11.5058C7.30571 11.2456 7.62433 11.1155 8.00121 11.1155C8.3781 11.1155 8.69671 11.2456 8.95705 11.5058C9.21727 11.7661 9.34738 12.0846 9.34738 12.4615C9.34738 12.8316 9.21727 13.1485 8.95705 13.4122C8.69671 13.6758 8.3781 13.8077 8.00121 13.8077ZM11.9345 10.0333L11.5505 9.64934L11.1665 9.26534L9.27305 7.37184C9.91238 7.46073 10.5382 7.65751 11.1505 7.96218C11.763 8.26695 12.3158 8.6659 12.8089 9.15901L11.9345 10.0333ZM14.6012 7.40001C13.7457 6.54445 12.754 5.87501 11.6262 5.39168C10.4984 4.90834 9.2901 4.66668 8.00121 4.66668C7.76788 4.66668 7.53966 4.67501 7.31655 4.69168C7.09355 4.70834 6.87733 4.73334 6.66788 4.76668L5.39105 3.48984C5.7816 3.3864 6.19227 3.30884 6.62305 3.25718C7.05382 3.2054 7.51321 3.17951 8.00121 3.17951C9.50632 3.17951 10.9102 3.46006 12.2127 4.02118C13.5153 4.58229 14.6584 5.35473 15.6422 6.33851L14.6012 7.40001Z" fill="white"/>
    </g>
    <defs>
        <clipPath id="clip0_15593_73600">
            <rect width="16" height="16" fill="white"/>
        </clipPath>
    </defs>
</svg>
