<svg width="16" height="18" viewBox="0 0 16 18" fill="none" xmlns="http://www.w3.org/2000/svg">
    <path d="M2.99325 18C2.46164 18 2.00749 17.8118 1.63082 17.4353C1.25432 17.0586 1.06607 16.6044 1.06607 16.0728V2.54204H0V0.942936H4.7973V0H11.1937V0.942936H15.991V2.54204H14.9249V16.0728C14.9249 16.6114 14.7384 17.0672 14.3652 17.4403C13.9921 17.8134 13.5363 18 12.9977 18H2.99325ZM13.3258 2.54204H2.66517V16.0728C2.66517 16.1686 2.6959 16.2472 2.75738 16.3087C2.81886 16.3702 2.89748 16.4009 2.99325 16.4009H12.9977C13.0798 16.4009 13.155 16.3667 13.2232 16.2983C13.2916 16.2301 13.3258 16.1549 13.3258 16.0728V2.54204ZM5.22799 14.2688H6.82682V4.67417H5.22799V14.2688ZM9.16417 14.2688H10.763V4.67417H9.16417V14.2688Z" fill="white"/>
</svg>
