<svg width="16" height="16" viewBox="0 0 16 16" fill="none" xmlns="http://www.w3.org/2000/svg">
    <path d="M14.173 6.13461C13.4125 5.51998 12.4437 5.28038 11.5009 5.47831C11.1884 5.54082 10.8706 5.66062 10.5529 5.84292L8.57877 6.98364V4.09278C8.57877 3.93652 8.51626 3.79067 8.40688 3.68129C8.2975 3.57191 8.14644 3.50419 7.99018 3.50419C7.83392 3.50419 7.68286 3.5667 7.57348 3.67608C7.4641 3.78546 7.40159 3.93652 7.40159 4.09278V6.98885L4.89618 5.54082C4.76596 5.46268 4.61491 5.44185 4.46385 5.47831C4.3128 5.51998 4.17737 5.61895 4.10445 5.74917C3.93777 6.02523 4.03153 6.38463 4.3128 6.55131L6.82342 7.99935L4.82326 9.15048C4.193 9.50989 3.44294 9.49947 2.81789 9.13486C2.19283 8.77025 1.81781 8.11915 1.81781 7.39513V5.59811C1.81781 4.8793 2.20325 4.21258 2.8231 3.84797L6.98489 1.44152C7.60994 1.08733 8.38605 1.08212 9.00068 1.44152L12.7718 3.62399C12.9072 3.70212 13.0687 3.72296 13.2198 3.68129C13.3708 3.63962 13.501 3.54586 13.5792 3.40523C13.7406 3.12395 13.6469 2.76455 13.3656 2.60308L9.58927 0.425816C8.60482 -0.141939 7.38076 -0.141939 6.40151 0.425816L2.2345 2.83226C1.25005 3.40002 0.640625 4.45739 0.640625 5.5929V7.39513C0.640625 8.36396 1.06774 9.27029 1.81781 9.8745C2.57828 10.4891 3.55753 10.7235 4.49511 10.5152C4.51594 10.51 4.99515 10.385 5.23475 10.2652L5.30767 10.2235C5.34934 10.2027 5.39101 10.1818 5.42747 10.161L7.40159 9.02027V11.9059C7.40159 12.2289 7.66724 12.4893 7.99018 12.4893C8.14644 12.4893 8.29229 12.4268 8.40167 12.3174C8.51106 12.208 8.57356 12.057 8.57356 11.9059V9.02027L11.0738 10.4631C11.1623 10.5152 11.2561 10.5412 11.355 10.5412H11.3707C11.5842 10.5412 11.7769 10.4266 11.8759 10.2495C11.954 10.1193 11.9749 9.95784 11.9332 9.812C11.8915 9.66094 11.7926 9.53072 11.6571 9.45259L9.15694 8.00977L11.1415 6.86905C11.7717 6.50444 12.527 6.50444 13.1573 6.86905C13.7875 7.23366 14.1678 7.88476 14.1678 8.61398V10.411C14.1678 11.135 13.7823 11.8017 13.1625 12.1611L8.99547 14.5676C8.37563 14.9218 7.60473 14.9218 6.97447 14.5676L3.20854 12.3903C3.07311 12.3122 2.91685 12.2914 2.76059 12.333C2.60954 12.3747 2.48452 12.4685 2.40639 12.6039C2.32826 12.7393 2.30743 12.8956 2.3491 13.0466C2.39077 13.1977 2.48453 13.3227 2.61995 13.4008L6.39109 15.5781C6.88072 15.8594 7.43284 16 7.98497 16C8.5371 16 9.08923 15.8594 9.58406 15.5781L13.7459 13.1769C14.7303 12.6091 15.3449 11.5569 15.3449 10.4214V8.61919C15.3449 7.65557 14.923 6.75446 14.1782 6.14503L14.173 6.13461Z" fill="white"/>
</svg>
