<svg width="16" height="16" viewBox="0 0 16 16" fill="none" xmlns="http://www.w3.org/2000/svg">
<circle cx="8" cy="8" r="7" fill="#737373" fill-opacity="0.15"/>
<g clip-path="url(#clip0_16237_557871)">
<path d="M5.22879 4.77456C5.30705 4.75679 5.38827 4.7568 5.46597 4.77403L5.54293 4.79723L5.57139 4.80988L11.4373 7.67616C11.4484 7.68159 11.4591 7.68818 11.4695 7.69461C11.4736 7.6972 11.4781 7.69924 11.4821 7.70199C11.4991 7.71353 11.5145 7.72695 11.529 7.741C11.5323 7.7442 11.5353 7.74768 11.5385 7.75101C11.5841 7.79849 11.6159 7.85746 11.6302 7.92231C11.6308 7.92494 11.6313 7.92757 11.6318 7.93022C11.6362 7.95275 11.6392 7.97575 11.6392 7.99927C11.6392 8.02217 11.636 8.04475 11.6318 8.06673C11.631 8.07099 11.6301 8.07518 11.6292 8.07938C11.6146 8.14304 11.5833 8.20077 11.5385 8.24752C11.5353 8.25086 11.5323 8.25433 11.529 8.25754C11.5154 8.27067 11.501 8.28295 11.4853 8.29391C11.4786 8.29862 11.4712 8.3023 11.4642 8.30656C11.4553 8.31188 11.4467 8.31778 11.4373 8.32237L11.4231 8.32922C11.4214 8.32998 11.4196 8.3306 11.4178 8.33133L5.57139 11.1887C5.56208 11.1932 5.5526 11.1976 5.54293 11.2013C5.44291 11.2397 5.33327 11.2477 5.22879 11.224C5.1245 11.2002 5.02979 11.1456 4.95628 11.068L4.95576 11.0685C4.88488 10.9936 4.83582 10.9001 4.8145 10.7991C4.7936 10.6998 4.80082 10.5967 4.834 10.5008H4.83295L5.68155 7.99927L4.83295 5.49772L4.834 5.49719C4.80101 5.40147 4.79359 5.29853 4.8145 5.19939L4.83558 5.12507C4.86166 5.0528 4.90255 4.98623 4.95576 4.93005L4.95628 4.93058C5.02982 4.85287 5.12447 4.79831 5.22879 4.77456ZM6.31985 8.35927L5.64307 10.3527L9.72324 8.35927H6.31985ZM6.31985 7.63927H9.72324L5.64307 5.64531L6.31985 7.63927Z" fill="#8C9FBB"/>
</g>
<defs>
<clipPath id="clip0_16237_557871">
<rect width="10.6667" height="10.6667" fill="white" transform="translate(2.66602 2.66667)"/>
</clipPath>
</defs>
</svg>
