<svg width="16" height="16" viewBox="0 0 16 16" fill="none" xmlns="http://www.w3.org/2000/svg">
    <path d="M0 8C0 12.4182 3.58176 16 8 16C12.4182 16 16 12.4182 16 8C16 3.58176 12.4182 0 8 0C5.79088 0 3.79088 0.895172 2.34302 2.34302C0.895172 3.79088 0 5.79088 0 8ZM8 6.30675C8.00427 6.30675 8.0096 6.30675 8.01494 6.30675C8.95012 6.30675 9.70819 7.06482 9.70819 8C9.70819 8.93518 8.95012 9.69325 8.01494 9.69325C8.0096 9.69325 8.0048 9.69325 7.99947 9.69325H8V6.30675ZM8 11.1534C9.74126 11.1534 11.1534 9.7418 11.1534 8C11.1534 6.2582 9.7418 4.84663 8 4.84663V3.87997C10.2753 3.87997 12.12 5.72473 12.12 8C12.12 10.2753 10.2753 12.12 8 12.12V11.1534ZM8 14.5463V13.5732C11.0782 13.5732 13.5732 11.0782 13.5732 8C13.5732 4.92185 11.0782 2.42678 8 2.42678V1.45372C11.6122 1.45852 14.5383 4.38784 14.5383 8C14.5383 11.6122 11.6116 14.542 8 14.5463Z" fill="white"/>
</svg>
