<svg width="500" height="500" viewBox="0 0 500 500" fill="none" xmlns="http://www.w3.org/2000/svg">
<path d="M291.177 78.3575C326.12 78.3575 343.592 78.3579 356.938 85.1583C368.678 91.1402 378.223 100.685 384.205 112.425C387.207 118.316 388.882 125.011 389.818 133.657C384.294 133.501 378.283 133.476 371.833 133.472H331.212C319.965 133.472 311.824 133.416 304.641 134.361C257.978 140.505 221.258 177.224 215.114 223.887C214.169 231.07 214.225 239.212 214.225 250.459C214.225 261.706 214.169 269.847 215.114 277.03C221.258 323.693 257.978 360.413 304.641 366.557C311.824 367.502 319.965 367.446 331.212 367.446H371.833C378.283 367.443 384.294 367.414 389.818 367.258C388.882 375.905 387.207 382.601 384.205 388.492C378.223 400.232 368.678 409.777 356.938 415.759C343.592 422.559 326.12 422.56 291.177 422.56H177.829C142.886 422.56 125.414 422.559 112.067 415.759C100.327 409.777 90.7826 400.232 84.8008 388.492C78.0004 375.146 78 357.674 78 322.731V178.187C78 143.243 78.0003 125.772 84.8008 112.425C90.7826 100.685 100.327 91.1402 112.067 85.1583C125.414 78.3579 142.886 78.3575 177.829 78.3575H291.177ZM366.958 159.469C394.27 159.469 407.926 159.469 418.264 164.994C426.426 169.357 433.112 176.042 437.475 184.204C443 194.542 443 208.199 443 235.511V265.407C443 292.719 443 306.376 437.475 316.713C433.112 324.875 426.426 331.56 418.264 335.923C407.926 341.448 394.27 341.448 366.958 341.448H331.212C319.139 341.448 313.102 341.449 308.034 340.781C273.037 336.174 245.497 308.634 240.89 273.637C240.222 268.569 240.222 262.532 240.222 250.459C240.222 238.386 240.222 232.348 240.89 227.28C245.497 192.283 273.037 164.743 308.034 160.136C313.102 159.469 319.139 159.469 331.212 159.469H366.958ZM318.214 223.942C303.856 223.942 292.217 235.581 292.217 249.939C292.217 264.296 303.856 275.936 318.214 275.936C332.572 275.936 344.211 264.296 344.211 249.939C344.211 235.581 332.572 223.942 318.214 223.942Z" fill="white"/>
</svg>
