<svg width="36" height="36" viewBox="0 0 36 36" fill="none" xmlns="http://www.w3.org/2000/svg">
    <path d="M9.46163 21.0012V23.2512H6.46163C5.71362 23.2512 5.07463 22.9857 4.54463 22.4547C4.01488 21.9237 3.75 21.2853 3.75 20.5396V6.46285C3.75 5.7171 4.0155 5.07872 4.5465 4.54772C5.0775 4.01672 5.71587 3.75122 6.46163 3.75122H20.5384C21.2841 3.75122 21.9225 4.01672 22.4535 4.54772C22.9845 5.07872 23.25 5.7171 23.25 6.46285V9.46285H21V6.46285C21 6.3281 20.9567 6.21747 20.8703 6.13097C20.7838 6.04447 20.6731 6.00122 20.5384 6.00122H6.46163C6.32687 6.00122 6.21625 6.04447 6.12975 6.13097C6.04325 6.21747 6 6.3281 6 6.46285V20.5396C6 20.6743 6.04325 20.785 6.12975 20.8715C6.21625 20.958 6.32687 21.0012 6.46163 21.0012H9.46163ZM15.4616 32.2512C14.7159 32.2512 14.0775 31.9857 13.5465 31.4547C13.0155 30.9237 12.75 30.2853 12.75 29.5396V15.4628C12.75 14.7171 13.0155 14.0787 13.5465 13.5477C14.0775 13.0167 14.7159 12.7512 15.4616 12.7512H29.5384C30.2841 12.7512 30.9225 13.0167 31.4535 13.5477C31.9845 14.0787 32.25 14.7171 32.25 15.4628V29.5396C32.25 30.2853 31.9845 30.9237 31.4535 31.4547C30.9225 31.9857 30.2841 32.2512 29.5384 32.2512H15.4616Z" fill="white"/>
</svg>
