<svg width="36" height="36" viewBox="0 0 36 36" fill="none" xmlns="http://www.w3.org/2000/svg">
    <path d="M16.2317 32.2508C15.4739 32.2508 14.7575 32.0911 14.0825 31.7719C13.4075 31.4526 12.8432 30.994 12.3894 30.396L4.74805 20.4986L5.30192 19.9076C5.67692 19.5076 6.12542 19.2673 6.64742 19.1865C7.16942 19.1055 7.6583 19.2045 8.11405 19.4835L11.7692 21.4451V9.57788C11.7692 9.25913 11.877 8.99188 12.0928 8.77613C12.3083 8.56063 12.5755 8.45288 12.8945 8.45288C13.2135 8.45288 13.4845 8.56063 13.7075 8.77613C13.9305 8.99188 14.042 9.25913 14.042 9.57788V16.9046H25.1825C26.3123 16.9046 27.2725 17.3 28.0633 18.0908C28.8543 18.8818 29.2498 19.8421 29.2498 20.9719V26.6246C29.2498 28.1791 28.6975 29.5055 27.593 30.6038C26.4888 31.7018 25.1612 32.2508 23.6102 32.2508H16.2317ZM7.0558 12.9529C6.75955 12.4509 6.53355 11.9141 6.3778 11.3426C6.22205 10.7711 6.14417 10.1829 6.14417 9.57788C6.14417 7.70463 6.80092 6.11138 8.11442 4.79813C9.42767 3.48463 11.0209 2.82788 12.8942 2.82788C14.7672 2.82788 16.3604 3.48463 17.6739 4.79813C18.9872 6.11138 19.6438 7.70401 19.6438 9.57601C19.6438 10.1848 19.5659 10.7743 19.4102 11.3445C19.2544 11.9148 19.0285 12.4509 18.7325 12.9529L16.7942 11.8279C16.9942 11.4779 17.1442 11.1216 17.2442 10.7591C17.3442 10.3966 17.3942 10.0029 17.3942 9.57788C17.3942 8.32788 16.9567 7.26538 16.0817 6.39038C15.2067 5.51538 14.1442 5.07788 12.8942 5.07788C11.6442 5.07788 10.5817 5.51538 9.70667 6.39038C8.83167 7.26538 8.39417 8.32788 8.39417 9.57788C8.39417 10.0029 8.44417 10.3966 8.54417 10.7591C8.64417 11.1216 8.79417 11.4779 8.99417 11.8279L7.0558 12.9529Z" fill="white"/>
</svg>
