<svg width="36" height="36" viewBox="0 0 36 36" fill="none" xmlns="http://www.w3.org/2000/svg">
    <path d="M17.9711 32.2512C16.0269 32.2512 14.1904 31.8767 12.4616 31.1277C10.7326 30.3787 9.223 29.359 7.93275 28.0685C6.64225 26.7782 5.6225 25.2662 4.8735 23.5325C4.1245 21.7987 3.75 19.955 3.75 18.0012C3.75 16.0225 4.13463 14.1662 4.90388 12.4325C5.67313 10.6987 6.71788 9.1906 8.03813 7.90809C9.35813 6.62534 10.9024 5.61185 12.6709 4.8676C14.4391 4.12335 16.3251 3.75122 18.3289 3.75122C20.2039 3.75122 21.9808 4.07097 23.6595 4.71047C25.3385 5.34997 26.813 6.2351 28.083 7.36585C29.3533 8.4966 30.3653 9.84035 31.119 11.3971C31.873 12.9536 32.25 14.6415 32.25 16.4607C32.25 19.057 31.4784 21.0877 29.9351 22.553C28.3919 24.0185 26.4135 24.7512 24 24.7512H21.2827C20.8557 24.7512 20.5144 24.8906 20.2586 25.1693C20.0029 25.4483 19.875 25.7782 19.875 26.159C19.875 26.6225 20.0625 27.1042 20.4375 27.6042C20.8125 28.1042 21 28.6782 21 29.3262C21 30.3165 20.726 31.0516 20.178 31.5316C19.6298 32.0113 18.8941 32.2512 17.9711 32.2512ZM9.75 19.1262C10.2845 19.1262 10.7306 18.9473 11.0884 18.5896C11.4461 18.2318 11.625 17.7857 11.625 17.2512C11.625 16.7167 11.4461 16.2706 11.0884 15.9128C10.7306 15.5551 10.2845 15.3762 9.75 15.3762C9.2155 15.3762 8.76938 15.5551 8.41162 15.9128C8.05387 16.2706 7.875 16.7167 7.875 17.2512C7.875 17.7857 8.05387 18.2318 8.41162 18.5896C8.76938 18.9473 9.2155 19.1262 9.75 19.1262ZM14.25 13.1262C14.7845 13.1262 15.2306 12.9473 15.5884 12.5896C15.9461 12.2318 16.125 11.7857 16.125 11.2512C16.125 10.7167 15.9461 10.2706 15.5884 9.91285C15.2306 9.5551 14.7845 9.37622 14.25 9.37622C13.7155 9.37622 13.2694 9.5551 12.9116 9.91285C12.5539 10.2706 12.375 10.7167 12.375 11.2512C12.375 11.7857 12.5539 12.2318 12.9116 12.5896C13.2694 12.9473 13.7155 13.1262 14.25 13.1262ZM21.75 13.1262C22.2845 13.1262 22.7306 12.9473 23.0884 12.5896C23.4461 12.2318 23.625 11.7857 23.625 11.2512C23.625 10.7167 23.4461 10.2706 23.0884 9.91285C22.7306 9.5551 22.2845 9.37622 21.75 9.37622C21.2155 9.37622 20.7694 9.5551 20.4116 9.91285C20.0539 10.2706 19.875 10.7167 19.875 11.2512C19.875 11.7857 20.0539 12.2318 20.4116 12.5896C20.7694 12.9473 21.2155 13.1262 21.75 13.1262ZM26.25 19.1262C26.7845 19.1262 27.2306 18.9473 27.5884 18.5896C27.9461 18.2318 28.125 17.7857 28.125 17.2512C28.125 16.7167 27.9461 16.2706 27.5884 15.9128C27.2306 15.5551 26.7845 15.3762 26.25 15.3762C25.7155 15.3762 25.2694 15.5551 24.9116 15.9128C24.5539 16.2706 24.375 16.7167 24.375 17.2512C24.375 17.7857 24.5539 18.2318 24.9116 18.5896C25.2694 18.9473 25.7155 19.1262 26.25 19.1262Z" fill="white"/>
</svg>
