<svg width="31" height="27" viewBox="0 0 31 27" fill="none" xmlns="http://www.w3.org/2000/svg">
    <path d="M28.875 23.7806L24.9086 19.8L26.475 18.2336L30.456 22.2L28.875 23.7806ZM23.778 6.05475L22.2116 4.48838L26.178 0.521999L27.7586 2.08838L23.778 6.05475ZM6.678 6.06937L2.71163 2.08838L4.278 0.521999L8.25863 4.48838L6.678 6.06937ZM1.56638 23.7806L0 22.2L3.96638 18.2336L5.54738 19.8L1.56638 23.7806ZM6.42713 27L8.74913 17.025L0.978 10.2983L11.2301 9.41813L15.228 0L19.2405 9.41813L29.4923 10.2983L21.7211 17.025L24.0435 27L15.228 21.7009L6.42713 27Z" fill="white"/>
</svg>
